<svg id="_x33_0" enable-background="new 0 0 64 64" height="512" viewBox="0 0 64 64" width="512" xmlns="http://www.w3.org/2000/svg"><g><g><g><path d="m24 4v2h-4v-2c0-1.1.9-2 2-2 .55 0 1.05.22 1.41.59.37.36.59.86.59 1.41z" fill="#ffc729"/></g><g><path d="m36 18v2h-4v-1c0-.55-.45-1-1-1h-3v-3.53c0-2.87-.65-5.71-1.91-8.29 5.63.99 9.91 5.9 9.91 11.82z" fill="#ffeaa7"/></g><g><path d="m17.91 6.18c-1.26 2.58-1.91 5.42-1.91 8.29v3.53h-3c-.55 0-1 .45-1 1v1h-4v-2c0-5.92 4.28-10.83 9.91-11.82z" fill="#ffeaa7"/></g><g><path d="m20 6h4c.71 0 1.41.06 2.09.18 1.26 2.58 1.91 5.42 1.91 8.29v3.53h-7-5v-3.53c0-2.87.65-5.71 1.91-8.29.68-.12 1.38-.18 2.09-.18z" fill="#fcd770"/></g><g><path d="m36 20v.84c0 1.51-.18 3.01-.52 4.47-.54-.79-1.45-1.31-2.48-1.31h-1v-2-2z" fill="#b27946"/></g><g><path d="m12 22v2h-1c-1.03 0-1.94.52-2.48 1.31-.34-1.46-.52-2.96-.52-4.47v-.84h4z" fill="#b27946"/></g><g><path d="m32 22h-20v-2-1c0-.55.45-1 1-1h3 5 7 3c.55 0 1 .45 1 1v1z" fill="#ccd1d9"/></g><g><path d="m41.5 45.5c.32.81.5 1.7.5 2.63v2.87c0 .55-.45 1-1 1h-3v-10.2c1.59.75 2.84 2.08 3.5 3.7z" fill="#e6e9ed"/></g><g><path d="m22 42c.46 0 .91-.05 1.36-.14-.85.96-1.36 2.22-1.36 3.6 0 .36.04.72.11 1.07l.29 1.47h-6.4c-1.1 0-2-.9-2-2v-5.6l3-.4 1.34.89c1.08.72 2.36 1.11 3.66 1.11z" fill="#e6e9ed"/></g><g><path d="m10 40.93v11.07h-6-1c-.55 0-1-.45-1-1v-2.87c0-3.51 2.6-6.48 6.07-6.94z" fill="#e6e9ed"/></g><g><path d="m22.4 48 1.6 8h-14v-4-11.07l4-.53v5.6c0 1.1.9 2 2 2z" fill="#ff826e"/></g><g><path d="m10 56h14l3.66-1.83c.11-.05.22-.1.34-.12v-.01c.12-.02.25-.04.38-.04.9 0 1.62.72 1.62 1.62v.38h2c1.1 0 2 .9 2 2v2c0 1.1-.9 2-2 2h-22c-3.31 0-6-2.69-6-6v-4h6z" fill="#f0d0b4"/></g><g><path d="m35.12 29.12c-.54.54-1.29.88-2.12.88h-1.75-.01c.5-1.4.76-2.9.76-4.43v-1.57h1c1.03 0 1.94.52 2.48 1.31.33.48.52 1.06.52 1.69 0 .83-.34 1.58-.88 2.12z" fill="#f0d0b4"/></g><g><path d="m27 40 .09.01v.01c-1.49.09-2.81.79-3.73 1.84-.45.09-.9.14-1.36.14-1.3 0-2.58-.39-3.66-1.11l-1.34-.89.84-3.36c.15.1.3.2.46.3 1.11.69 2.39 1.06 3.7 1.06s2.59-.37 3.7-1.06c.16-.1.31-.2.46-.3z" fill="#f0d0b4"/></g><g><path d="m32 24v1.57c0 1.53-.26 3.03-.76 4.43-.93 2.67-2.69 5.01-5.08 6.64-.15.1-.3.2-.46.3-1.11.69-2.39 1.06-3.7 1.06s-2.59-.37-3.7-1.06c-.16-.1-.31-.2-.46-.3-1.75-1.19-3.17-2.77-4.16-4.57-.36-.66-.67-1.35-.92-2.07-.5-1.4-.76-2.9-.76-4.43v-1.57-2h20z" fill="#f0d0b4"/></g><g><path d="m12 25.57c0 1.53.26 3.03.76 4.43h-.01-1.75c-.83 0-1.58-.34-2.12-.88s-.88-1.29-.88-2.12c0-.63.19-1.21.52-1.69.54-.79 1.45-1.31 2.48-1.31h1z" fill="#f0d0b4"/></g><g><path d="m36 60c-.55 0-1.05-.22-1.41-.59-.37-.36-.59-.86-.59-1.41 0-1.1-.9-2-2-2l1.89-9.47c.07-.35.11-.71.11-1.07v-5.46c0-1.1.9-2 2-2 .55 0 1.05.22 1.41.59.37.36.59.86.59 1.41v1.8 10.2 6c0 1.1-.9 2-2 2z" fill="#969faa"/></g><g><path d="m34 40v5.46c0-1.51-.61-2.88-1.6-3.86-.65-.66-1.48-1.15-2.4-1.4v-.2c0-1.1.9-2 2-2 .55 0 1.05.22 1.41.59.37.36.59.86.59 1.41z" fill="#969faa"/></g><g><path d="m28 48c1.1 0 2-.9 2-2s-.9-2-2-2-2 .9-2 2 .9 2 2 2zm5.89-1.47-1.89 9.47h-2v-.38c0-.9-.72-1.62-1.62-1.62-.13 0-.26.02-.38.04v.01c-.12.02-.23.07-.34.12l-3.66 1.83-1.6-8-.29-1.47c-.07-.35-.11-.71-.11-1.07 0-1.38.51-2.64 1.36-3.6.92-1.05 2.24-1.75 3.73-1.84.12-.02.25-.02.37-.02h1.08c.51 0 1 .07 1.46.2.92.25 1.75.74 2.4 1.4.99.98 1.6 2.35 1.6 3.86 0 .36-.04.72-.11 1.07z" fill="#aab2bd"/></g><g><path d="m54 18v4h-8v-4c0-1.1.9-2 2-2h2 2c1.1 0 2 .9 2 2z" fill="#aab2bd"/></g><g><path d="m61.74 30h-23.48c.14-.31.33-.59.57-.83l7.17-7.17h8l7.17 7.17c.24.24.43.52.57.83z" fill="#aab2bd"/></g><g><path d="m38.26 30h23.48c.17.36.26.76.26 1.17 0 1.56-1.27 2.83-2.83 2.83h-3.17-6-6-3.17c-1.56 0-2.83-1.27-2.83-2.83 0-.41.09-.81.26-1.17z" fill="#ccd1d9"/></g><g><path d="m50 34h6l-.18 1.07c-.24 1.42-.97 2.65-2 3.53-1.04.88-2.38 1.4-3.82 1.4-2.89 0-5.35-2.09-5.82-4.93l-.18-1.07z" fill="#ff826e"/></g></g><g><circle cx="18" cy="26" r="1"/><circle cx="26" cy="26" r="1"/><path d="m22 35c1.615 0 3.067-.897 3.789-2.342l.105-.211-1.789-.895-.105.212c-.381.762-1.147 1.236-2 1.236s-1.619-.474-2-1.236l-.105-.211-1.789.895.105.21c.722 1.445 2.174 2.342 3.789 2.342z"/><path d="m61.879 28.464-6.879-6.878v-3.586c0-1.654-1.346-3-3-3h-1v-14h-2v14h-1c-1.654 0-3 1.346-3 3v3.586l-6.879 6.879c-.723.723-1.121 1.684-1.121 2.706 0 2.112 1.718 3.829 3.828 3.829h2.325l.039.232c.557 3.342 3.42 5.768 6.808 5.768s6.251-2.426 6.809-5.768l.038-.232h2.325c2.11 0 3.828-1.717 3.828-3.829 0-1.022-.398-1.983-1.121-2.707zm-8.293-5.464 6.001 6h-19.173l6-6zm-5.586-6h4c.552 0 1 .449 1 1v3h-6v-3c0-.551.448-1 1-1zm2 22c-2.372 0-4.376-1.678-4.811-4h3.811v2h2v-2h3.811c-.435 2.322-2.439 4-4.811 4zm9.172-6h-18.344c-1.008 0-1.828-.82-1.828-1.829 0-.058.011-.114.017-.171h21.966c.006.057.017.113.017.171 0 1.009-.82 1.829-1.828 1.829z"/><path d="m49 43h2v6h-2z"/><path d="m56.5 40.964h2v7.071h-2z" transform="matrix(.707 -.707 .707 .707 -14.625 53.692)"/><path d="m44.293 41.293-2.548 2.548c-.68-1.071-1.624-1.966-2.745-2.618v-1.223c0-1.654-1.346-3-3-3-.771 0-1.468.301-2 .78-.532-.48-1.229-.78-2-.78-1.314 0-2.421.854-2.826 2.032-.208-.02-.419-.032-.633-.032h-.761l-.489-1.954c2.097-1.585 3.691-3.672 4.654-6.046h1.055c2.206 0 4-1.794 4-4 0-.667-.179-1.286-.469-1.839.306-1.419.469-2.87.469-4.323v-2.838c0-6.831-5.299-12.435-12-12.949v-1.051c0-1.654-1.346-3-3-3s-3 1.346-3 3v1.051c-6.701.514-12 6.118-12 12.949v2.838c0 1.453.163 2.905.469 4.323-.29.553-.469 1.172-.469 1.839 0 2.206 1.794 4 4 4h1.055c.962 2.374 2.557 4.462 4.653 6.046l-.514 2.052-8.251 1.1c-3.959.529-6.943 3.938-6.943 7.93v2.872c0 1.103.897 2 2 2v3c0 3.86 3.141 7 7 7h22c1.383 0 2.539-.945 2.884-2.22.346.139.721.22 1.116.22 1.654 0 3-1.346 3-3v-5h2c1.103 0 2-.897 2-2v-2.872c0-.808-.131-1.598-.364-2.35l3.071-3.071zm-12.293-2.293c.552 0 1 .449 1 1v.798c-.544-.521-1.177-.948-1.875-1.255.167-.318.491-.543.875-.543zm1 6.459c0 .295-.029.588-.087.875l-1.733 8.666h-.253c-.231-.947-.98-1.686-1.927-1.917v-4.267c1.161-.414 2-1.514 2-2.816 0-1.654-1.346-3-3-3s-3 1.346-3 3c0 1.302.839 2.402 2 2.816v4.566l-2.276 1.138-1.637-8.188c-.058-.284-.087-.578-.087-.873 0-2.459 2-4.459 4.459-4.459h1.082c2.459 0 4.459 2 4.459 4.459zm-6 .541c0-.551.448-1 1-1s1 .449 1 1-.448 1-1 1-1-.449-1-1zm-16-4.191 2-.267v4.458c0 1.654 1.346 3 3 3h5.581l1.2 6h-11.781zm7.891-1.75-.75-.5.347-1.391c1.092.537 2.287.832 3.512.832s2.42-.295 3.511-.832l.265 1.062c-1.112.301-2.107.885-2.897 1.68-1.384.218-2.82-.072-3.988-.851zm-9.698-16.608c-.116-.812-.181-1.63-.188-2.451h1.995v2c-.653 0-1.261.172-1.807.451zm9.399-16.35c.462-.06.93-.101 1.408-.101h4c.478 0 .946.041 1.408.101 1.038 2.307 1.592 4.842 1.592 7.371v2.528h-4.382l3.249-6.498-4 1 1.027-2.055-1.789-.895-2.973 5.945 4-1-1.75 3.503h-3.382v-2.528c0-2.529.554-5.064 1.592-7.371zm12.408 11.898v2.001h-18v-2zm2 4.001v-2h1.995c-.007.82-.073 1.639-.189 2.451-.545-.279-1.153-.451-1.806-.451zm0 6h-.414c.269-1.108.414-2.259.414-3.434v-.566c1.103 0 2 .897 2 2s-.897 2-2 2zm2-11v1h-2c0-1.103-.897-2-2-2h-2v-2.528c0-2.302-.411-4.61-1.192-6.779 4.191 1.555 7.192 5.582 7.192 10.307zm-13-15c.552 0 1 .449 1 1v1h-2v-1c0-.551.448-1 1-1zm-5.808 4.694c-.781 2.168-1.192 4.476-1.192 6.778v2.528h-2c-1.103 0-2 .897-2 2h-2v-1c0-4.725 3.001-8.752 7.192-10.306zm-5.192 21.306c-1.103 0-2-.897-2-2s.897-2 2-2v.566c0 1.176.145 2.326.414 3.434zm2-3.434v-2.566h18v2.566c0 4.308-2.181 8.242-5.834 10.526-1.9 1.188-4.432 1.188-6.332 0-3.653-2.284-5.834-6.218-5.834-10.526zm3.759 15.475 1.023.682c1.114.743 2.394 1.154 3.721 1.241-.324.768-.503 1.611-.503 2.495 0 .428.043.854.126 1.267l.055.274h-5.181c-.552 0-1-.449-1-1v-4.725zm-13.759 7.087c0-2.995 2.238-5.551 5.207-5.947l.793-.106v8.925h-6zm30 11.872c0 .551-.448 1-1 1h-22c-2.757 0-5-2.243-5-5v-3h4v2h-2v2h17.236l3.869-1.935c.39-.195.895.117.895.553v1.382h3c.552 0 1 .449 1 1zm4-2c0 .551-.448 1-1 1s-1-.449-1-1c0-1.239-.755-2.304-1.828-2.761l1.702-8.51c.083-.415.126-.842.126-1.27v-5.459c0-.551.448-1 1-1s1 .449 1 1zm4-7h-2v-7.34c1.248 1.123 2 2.746 2 4.468z"/></g></g></svg>