<svg height="512" viewBox="0 0 48 60" width="512" xmlns="http://www.w3.org/2000/svg"><g id="Page-1" fill="none" fill-rule="evenodd"><g id="043---Electrical-Hardhat" fill-rule="nonzero"><path id="Shape" d="m45 35v3c0 2.76-1.79 5-4 5h-34c-2.21 0-4-2.24-4-5v-3z" fill="#dfc49c"/><path id="Shape" d="m45.0000548 28-.0000548-2c.0058028-2.3976224-.4491096-4.7740303-1.34-7-1.9337759-4.8719587-5.7898566-8.7316568-10.66-10.67l-18 .02c-7.2405263 2.8664015-11.99724135 9.8627366-12 17.65v2z" fill="#fec108"/><path id="Shape" d="m15 28v-20c.0032948-1.10320187.8967981-1.9967052 2-2h2v-3c.0032948-1.10320187.8967981-1.9967052 2-2h6c1.1032019.0032948 1.9967052.89679813 2 2v3h2c1.1032019.0032948 1.9967052.89679813 2 2v.33l-1 19.67z" fill="#ffdc00"/><path id="Shape" d="m31 6h-2v-3c-.0032948-1.10320187-.8967981-1.9967052-2-2h-3c1.1032019.0032948 1.9967052.89679813 2 2v1c0 1.1045695.8954305 2 2 2 1.1032019.0032948 1.9967052.89679813 2 2v20h3v-20c-.0032948-1.10320187-.8967981-1.9967052-2-2z" fill="#fec108"/><path id="Shape" d="m40.99 35v9.67c-.0014379 1.5143578-.4925356 2.987651-1.4 4.2l-5.5 7.33c-1.3229115 1.7615252-3.397033 2.7985859-5.6 2.8h-8.99c-2.202967-.0014141-4.2770885-1.0384748-5.6-2.8l-5.5-7.33c-.90746435-1.212349-1.39856209-2.6856422-1.4-4.2v-9.67" fill="#ffe0b2"/><path id="Shape" d="m37.99 35v9.67c-.0014379 1.5143578-.4925356 2.987651-1.4 4.2l-5.5 7.33c-1.3229115 1.7615252-3.397033 2.7985859-5.6 2.8h3c2.202967-.0014141 4.2770885-1.0384748 5.6-2.8l5.5-7.33c.9074644-1.212349 1.3985621-2.6856422 1.4-4.2v-9.67z" fill="#dfc49c"/><path id="Shape" d="m36 28h-33c-1.10320187.0032948-1.9967052.8967981-2 2v4c0 .5522847.44771525 1 1 1h44c.5522847 0 1-.4477153 1-1v-4c-.0032948-1.1032019-.8967981-1.9967052-2-2z" fill="#ffeb3a"/><path id="Shape" d="m45 28h-3c1.1032019.0032948 1.9967052.8967981 2 2v4c0 .5522847-.4477153 1-1 1h3c.5522847 0 1-.4477153 1-1v-4c-.0032948-1.1032019-.8967981-1.9967052-2-2z" fill="#fdd834"/><path id="Shape" d="m28.424 16h-2.7l.93-7.359c.0278763-.24578072-.1045584-.4818474-.3288417-.58616525-.2242834-.10431786-.4901494-.05350725-.6601583.12616525l-6.5 6.862c-.1559278.1658771-.1977486.4088304-.1062586.6172969.0914899.2084665.2986128.3421655.5262586.3397031h2.7l-.93 7.359c-.0278763.2457807.1045584.4818474.3288417.5861653.2242834.1043178.4901494.0535072.6601583-.1261653l6.5-6.862c.1569307-.1655585.1993642-.4090407.1076907-.6179254-.0916736-.2088847-.2996004-.3424908-.5276907-.3390746z" fill="#00bcd4"/><g fill="#000"><path id="Shape" d="m46 27.184v-1.184c.0078913-2.5234689-.4708467-5.0247898-1.41-7.367-1.9581478-4.9103685-5.7759675-8.84894386-10.623-10.959-.1630826-1.51717909-1.4410894-2.66897896-2.967-2.674h-1v-2c0-1.65685425-1.3431458-3-3-3h-6c-1.6568542 0-3 1.34314575-3 3v2h-1c-1.5328747.0049824-2.8143887 1.16693448-2.969 2.692-7.3036054 3.1560401-12.03217127 10.3516667-12.031 18.308v1.184c-1.19435086.4222546-1.99474861 1.5492146-2 2.816v4c0 1.1045695.8954305 2 2 2v2c0 2.9 1.717 5.317 4 5.878v.792c-.00151902 1.7312079.56006007 3.4159451 1.6 4.8l5.5 7.33c1.5150537 2.0093854 3.8834595 3.1935883 6.4 3.2h8.99c2.5166143-.0061008 4.8851508-1.190369 6.4-3.2l5.5-7.333c1.0405916-1.383713 1.6022455-3.0686746 1.6-4.8v-.667h.01c.3147573 0 .6111456-.1481942.8-.4 2.0495911-1.1013447 3.2917108-3.2750542 3.2-5.6v-2c1.1045695 0 2-.8954305 2-2v-4c-.0052514-1.2667854-.8056491-2.3937454-2-2.816zm-42 10.816v-2h2v5.754c-1.31694778-.7781736-2.08878047-2.2269035-2-3.754zm34.79 10.27-5.5 7.33c-1.1361114 1.5072539-2.91253 2.3954633-4.8 2.4h-8.99c-1.88747-.0045367-3.6638886-.8927461-4.8-2.4l-5.5-7.328c-.78003632-1.0379985-1.20122997-2.3015794-1.2-3.6v-1.648c0-.008.005-.015.005-.024s-.005-.016-.005-.024l-.00000269-6.976h31.99000759l-.0000049 8.67c.0016659 1.2984911-.4195726 2.5622067-1.2 3.6zm5.21-10.27c.0901634 1.5310127-.6864979 2.983099-2.01 3.758v-5.758h2.01zm2-4h-44v-4c0-.5522847.44771525-1 1-1h5c.55228475 0 1-.4477153 1-1s-.44771525-1-1-1h-4v-1c-.00728193-2.2721093.42393397-4.5242786 1.27-6.633.90607927-2.2832426 2.27048315-4.3565647 4.009-6.092 1.3783275-1.3758214 2.9732099-2.5159883 4.721-3.375v3.1c0 .5522847.4477153 1 1 1s1-.4477153 1-1v-5c0-.55228475.4477153-1 1-1h2c.5522847 0 1-.44771525 1-1v-3c0-.55228475.4477153-1 1-1h6c.5522847 0 1 .44771525 1 1v3c0 .55228475.4477153 1 1 1h2c.5522847 0 1 .44771525 1 1v5c0 .5522847.4477153 1 1 1s1-.4477153 1-1v-3.113c3.9791126 1.9793332 7.0882451 5.3569363 8.732 9.486.8450101 2.1068715 1.2755466 4.3570017 1.268 6.627v1h-4c-.5522847 0-1 .4477153-1 1s.4477153 1 1 1h5c.5522847 0 1 .4477153 1 1z"/><path id="Shape" d="m36 27h-2v-3c0-.5522847-.4477153-1-1-1s-1 .4477153-1 1v3h-16v-3c0-.5522847-.4477153-1-1-1s-1 .4477153-1 1v3h-2c-.5522847 0-1 .4477153-1 1s.4477153 1 1 1h24c.5522847 0 1-.4477153 1-1s-.4477153-1-1-1z"/><path id="Shape" d="m19.583 17h1.563l-.789 6.234c-.0820261.6750173.2784155 1.3264613.8938826 1.6155581s1.3469764.1505633 1.8141174-.3435581l6.5-6.861c.4312346-.4549449.5498501-1.1231111.3015576-1.6986882-.2482924-.5755771-.8157116-.9478017-1.4425576-.9463118h-1.562l.788-6.234c.0828235-.67507566-.2773267-1.32698938-.8928925-1.61623939-.6155658-.28925-1.3472901-.15040028-1.8141075.34423939l-6.505 6.861c-.4307569.4557881-.548503 1.1244025-.2993645 1.6999234.2491386.5755209.8172364.9472387 1.4443645.9450766zm5.917-7.189-.766 6.064c-.0359158.2850688.0525217.5718132.242766.7871299.1902442.2153167.4639121.3383998.751234.3378701h1.7l-4.92 5.189.767-6.064c.0359383-.2852422-.0526286-.5721534-.2430961-.7875061s-.4644078-.3383115-.7519039-.3374939h-1.7z"/></g></g></g></svg>