<svg height="512pt" viewBox="-6 0 512 512" width="512pt" xmlns="http://www.w3.org/2000/svg"><path d="m381.117188 163.449219c0 12.003906-9.730469 21.734375-21.734376 21.734375-12.003906 0-21.734374-9.730469-21.734374-21.734375 0-12.003907 9.730468-21.734375 21.734374-21.734375 12.003907 0 21.734376 9.730468 21.734376 21.734375zm0 0" fill="#ffbc8a"/><path d="m189.996094 163.449219c0 12.003906-9.734375 21.734375-21.738282 21.734375-12.003906 0-21.734374-9.730469-21.734374-21.734375 0-12.003907 9.730468-21.734375 21.734374-21.734375 12.003907 0 21.738282 9.730468 21.738282 21.734375zm0 0" fill="#ffbc8a"/><path d="m409.644531 318.171875v162.304687c0 5.1875-4.207031 9.394532-9.394531 9.394532h-272.855469c-5.191406 0-9.398437-4.203125-9.398437-9.394532v-162.304687c0-31.9375 19.246094-59.386719 46.761718-71.386719 9.515626-4.148437 20.03125-6.449218 31.074219-6.449218h135.976563c4.253906 0 8.429687.335937 12.5 1.003906 6.503906 1.046875 12.71875 2.898437 18.574218 5.445312.027344.011719.046876.019532.074219.039063 27.480469 12.003906 46.6875 39.441406 46.6875 71.347656zm0 0" fill="#ffa964"/><g fill="#ff872a"><path d="m210.058594 253.191406 4.6875 45.636719c.839844 8.160156 10.285156 12.269531 16.824218 7.3125l32.25-24.417969v-28.53125zm0 0"/><path d="m317.585938 253.191406-4.691407 45.636719c-.839843 8.160156-10.28125 12.269531-16.824219 7.3125l-32.246093-24.417969v-28.53125zm0 0"/><path d="m409.644531 318.175781v162.304688c0 5.183593-4.207031 9.394531-9.394531 9.394531h-21.65625c5.183594 0 9.394531-4.210938 9.394531-9.394531v-162.304688c0-31.933593-19.242187-59.386719-46.761719-71.386719-5.851562-2.554687-12.070312-4.402343-18.574218-5.445312-4.066406-.667969-8.246094-1.007812-12.503906-1.007812h21.65625c4.257812 0 8.4375.339843 12.503906 1.007812 6.503906 1.042969 12.722656 2.890625 18.574218 5.445312 27.519532 12 46.761719 39.453126 46.761719 71.386719zm0 0"/></g><path d="m263.820312 283.925781c-44.21875 0-80.699218-34.621093-83.011718-78.777343l-3.164063-60.492188c-1.34375-25.671875 19.109375-47.226562 44.816407-47.226562h82.71875c25.707031 0 46.164062 21.554687 44.820312 47.226562l-3.167969 60.492188c-2.3125 44.15625-38.792969 78.777343-83.011719 78.777343zm0 0" fill="#fdd1a7"/><path d="m366.804688 136.285156h-205.96875v-25.976562c0-51.320313 41.605468-92.925782 92.929687-92.925782h20.109375c51.324219 0 92.929688 41.605469 92.929688 92.925782zm0 0" fill="#ffa964"/><path d="m366.800781 110.3125v25.96875h-21.652343v-25.96875c0-51.070312-41.183594-92.5-92.148438-92.917969.257812-.007812.507812-.007812.769531-.007812h20.105469c51.328125 0 92.925781 41.597656 92.925781 92.925781zm0 0" fill="#ff872a"/><path d="m367.839844 149.5625h-208.039063c-7.332031 0-13.277343-5.945312-13.277343-13.277344 0-7.335937 5.945312-13.28125 13.277343-13.28125h208.039063c7.332031 0 13.28125 5.945313 13.28125 13.28125 0 7.332032-5.949219 13.277344-13.28125 13.277344zm0 0" fill="#ff872a"/><path d="m381.117188 136.28125c0 3.671875-1.484376 6.988281-3.890626 9.398438-2.402343 2.398437-5.71875 3.878906-9.386718 3.878906h-21.746094c3.667969 0 6.988281-1.480469 9.394531-3.878906 2.410157-2.410157 3.890625-5.726563 3.890625-9.398438 0-7.328125-5.945312-13.273438-13.285156-13.273438h21.746094c7.335937 0 13.277344 5.945313 13.277344 13.273438zm0 0" fill="#f36717"/><path d="m273.179688 91.503906h-18.71875c-5.304688 0-9.605469-4.300781-9.605469-9.605468v-64.792969c0-5.304688 4.300781-9.605469 9.605469-9.605469h18.714843c5.308594 0 9.609375 4.300781 9.609375 9.605469v64.792969c0 5.304687-4.300781 9.605468-9.605468 9.605468zm0 0" fill="#ff872a"/><path d="m163.59375 408.472656h-122.058594c-3.449218 0-6.65625 1.789063-8.460937 4.730469l-16.496094 26.824219c-.960937 1.5625-1.46875 3.363281-1.46875 5.195312l-.042969 49.335938c-.003906 5.488281 4.445313 9.941406 9.933594 9.941406h155.128906c5.488282 0 9.9375-4.445312 9.9375-9.933594v-49.332031c0-1.839844-.511718-3.644531-1.480468-5.210937l-16.535157-26.828126c-1.804687-2.9375-5.007812-4.722656-8.457031-4.722656zm0 0" fill="#2ea8fc"/><path d="m190.0625 445.230469v49.332031c0 5.496094-4.441406 9.933594-9.933594 9.933594h-20.5625c5.492188 0 9.933594-4.441406 9.933594-9.933594v-49.332031c0-1.839844-.507812-3.648438-1.472656-5.207031l-16.539063-26.832032c-1.808593-2.933594-5.007812-4.71875-8.453125-4.71875h20.5625c3.445313 0 6.644532 1.785156 8.453125 4.71875l16.542969 26.832032c.960938 1.558593 1.46875 3.367187 1.46875 5.207031zm0 0" fill="#0086f9"/><path d="m472.597656 489.871094h-8.765625c-10.742187 0-19.449219-8.707032-19.449219-19.449219v-107.902344c0-10.742187 8.707032-19.449219 19.449219-19.449219h8.765625c10.742188 0 19.449219 8.707032 19.449219 19.449219v107.902344c0 10.742187-8.710937 19.449219-19.449219 19.449219zm0 0" fill="#ff872a"/><path d="m492.046875 362.515625v107.910156c0 10.742188-8.710937 19.449219-19.453125 19.449219h-8.757812c-2.109376 0-4.144532-.339844-6.035157-.960938 7.789063-2.542968 13.414063-9.859374 13.414063-18.488281v-107.910156c0-8.628906-5.625-15.945313-13.414063-18.488281 1.890625-.621094 3.925781-.960938 6.035157-.960938h8.757812c10.742188 0 19.453125 8.707032 19.453125 19.449219zm0 0" fill="#f36717"/><path d="m460.914062 150.828125h14.597657c5.171875 0 9.488281 3.9375 9.96875 9.082031l4.140625 44.429688c.546875 5.867187-4.074219 10.9375-9.96875 10.9375h-22.875c-5.898438 0-10.515625-5.070313-9.96875-10.9375l4.140625-44.429688c.480469-5.144531 4.796875-9.082031 9.964843-9.082031zm0 0" fill="#efe2dd"/><path d="m479.65625 215.273438h-17.015625c5.886719 0 10.511719-5.066407 9.960937-10.929688l-4.136718-44.4375c-.4375-4.734375-4.140625-8.449219-8.757813-9 .402344-.058594.800781-.078125 1.210938-.078125h14.59375c5.167969 0 9.492187 3.933594 9.972656 9.078125l4.132813 44.4375c.550781 5.863281-4.074219 10.929688-9.960938 10.929688zm0 0" fill="#cdbfbb"/><path d="m78.300781 318.648438c0 9.835937-7.976562 17.8125-17.8125 17.8125-9.839843 0-17.816406-7.976563-17.816406-17.8125 0-9.839844 7.976563-17.8125 17.816406-17.8125 9.835938 0 17.8125 7.972656 17.8125 17.8125zm0 0" fill="#9e9797"/><path d="m58.34375 144.253906c-27.589844 1.089844-49.960938 23.664063-50.820312 51.261719-.429688 13.804687 4.429687 26.46875 12.703124 36.125 9.957032 11.617187 15.953126 26.070313 16.507813 41.296875h47.503906c.519531-15.011719 6.101563-29.460938 16.050781-40.769531 8.207032-9.328125 13.1875-21.5625 13.1875-34.96875 0-29.972657-24.894531-54.136719-55.132812-52.945313zm0 0" fill="#fbcc85"/><path d="m113.472656 197.195312c0 13.40625-4.976562 25.648438-13.183594 34.976563-9.949218 11.304687-15.535156 25.757813-16.054687 40.761719h-21.644531c.511718-15.003906 6.097656-29.457032 16.046875-40.761719 8.207031-9.328125 13.183593-21.570313 13.183593-34.976563 0-25.554687-18.089843-46.886718-42.164062-51.871093 2.824219-.589844 5.726562-.953125 8.691406-1.070313 30.238282-1.191406 55.125 22.972656 55.125 52.941406zm0 0" fill="#e8b76b"/><path d="m80.785156 313.730469h-40.59375c-5.53125 0-10.011718-4.480469-10.011718-10.007813v-23.152344c0-5.527343 4.480468-10.011718 10.011718-10.011718h40.59375c5.527344 0 10.007813 4.484375 10.007813 10.011718v23.152344c0 5.527344-4.480469 10.007813-10.007813 10.007813zm0 0" fill="#efe2dd"/><path d="m356.878906 351.398438c-4.144531 0-7.5 3.359374-7.5 7.5v130.976562c0 4.144531 3.355469 7.5 7.5 7.5 4.140625 0 7.5-3.355469 7.5-7.5v-130.976562c0-4.140626-3.359375-7.5-7.5-7.5zm0 0"/><path d="m348 234.378906c3.582031-8.980468 5.789062-18.671875 6.320312-28.839844l.691407-13.179687c1.4375.214844 2.894531.324219 4.371093.324219 16.121094 0 29.234376-13.113282 29.234376-29.234375 0-5.320313-1.414063-10.421875-4.058594-14.878907 2.539062-3.445312 4.058594-7.6875 4.058594-12.285156 0-9.199218-6.011719-17.011718-14.3125-19.738281v-6.234375c0-49.621094-36.421876-91.800781-85.140626-99.246094-2.449218-6.457031-8.679687-11.066406-15.984374-11.066406h-18.71875c-7.292969 0-13.519532 4.601562-15.976563 11.046875-22.671875 3.46875-43.492187 14.609375-59.054687 31.738281-16.824219 18.511719-26.09375 42.492188-26.09375 67.527344v6.234375c-8.296876 2.726563-14.3125 10.539063-14.3125 19.738281 0 4.605469 1.523437 8.855469 4.074218 12.304688-2.640625 4.476562-4.074218 9.609375-4.074218 14.859375 0 16.121093 13.113281 29.234375 29.234374 29.234375 1.464844 0 2.925782-.121094 4.371094-.339844l.691406 13.191406c.53125 10.167969 2.742188 19.863282 6.320313 28.84375-18.015625 3.46875-34.484375 12.675782-46.972656 26.414063-14.296875 15.730469-22.167969 36.109375-22.167969 57.382812v57.527344h-49.34375c-4.144531 0-7.5 3.355469-7.5 7.5v17.769531h-12.121094c-6.015625 0-11.703125 3.179688-14.851562 8.300782l-16.492188 26.824218c-1.6875 2.746094-2.582031 5.898438-2.582031 9.121094l-.042969 49.332031c-.003906 4.660157 1.808594 9.042969 5.101563 12.339844 3.292969 3.292969 7.675781 5.109375 12.335937 5.109375h99.773438c4.140625 0 7.5-3.355469 7.5-7.5s-3.359375-7.5-7.5-7.5h-99.777344c-.875 0-1.453125-.445312-1.722656-.714844-.265625-.265625-.710938-.84375-.710938-1.722656l.039063-44.644531h159.960937v44.644531c0 1.34375-1.09375 2.4375-2.4375 2.4375h-20.5c-4.140625 0-7.5 3.355469-7.5 7.5 0 4.140625 3.359375 7.5 7.5 7.5h20.5c9.613282 0 17.4375-7.820312 17.4375-17.4375v-28.914062h31.6875c4.140625 0 7.5-3.359376 7.5-7.5 0-4.144532-3.359375-7.5-7.5-7.5h-31.6875v-5.417969c0-3.230469-.898437-6.394531-2.59375-9.144531l-16.535156-26.828126c-.054688-.09375-.117188-.175781-.175781-.265624v-46c0-4.140626-3.355469-7.5-7.5-7.5-4.140625 0-7.5 3.359374-7.5 7.5v37.980468h-11.789063v-17.769531c0-4.144531-3.355468-7.5-7.5-7.5h-18.476562v-57.527344c0-35.59375 26.195312-65.230469 61.234375-69.738281 4.765625 7.703125 10.636719 14.632812 17.410156 20.5625l3.144531 30.59375c.675782 6.5625 4.691406 12.054688 10.746094 14.6875 2.351562 1.023438 4.804688 1.523438 7.238281 1.523438 3.835938 0 7.609375-1.246094 10.828125-3.683594l20.222656-15.3125v193.0625c0 4.144531 3.355469 7.5 7.5 7.5 4.140626 0 7.5-3.355469 7.5-7.5v-193.0625l20.222657 15.3125c3.214843 2.4375 6.992187 3.6875 10.828125 3.6875 2.429687 0 4.886718-.503906 7.238281-1.527344 6.050781-2.628906 10.066406-8.121094 10.746094-14.6875l3.144531-30.59375c6.769531-5.925781 12.640625-12.859375 17.40625-20.558594 35.042969 4.507813 61.234375 34.144532 61.234375 69.738282v162.300781c0 1.042969-.851563 1.894531-1.894531 1.894531-4.144532 0-7.5 3.359375-7.5 7.5 0 4.144531 3.355468 7.5 7.5 7.5 9.316406 0 16.894531-7.578125 16.894531-16.894531v-162.300781c0-21.273438-7.875-41.652344-22.171875-57.382813-12.484375-13.742187-28.949219-22.949219-46.96875-26.417969zm-279.34375 156.324219h41.84375v10.269531h-41.84375zm-29.191406 26.425781c.4375-.714844 1.230468-1.15625 2.070312-1.15625h122.058594c.855469 0 1.628906.433594 2.074219 1.15625l10.964843 17.789063h-148.105468zm97.011718-26.425781v10.269531h-10.976562v-10.269531zm23.324219-248.640625c-3.1875 0-5.777343-2.59375-5.777343-5.777344 0-3.1875 2.59375-5.78125 5.777343-5.78125h208.039063c3.1875 0 5.777344 2.59375 5.777344 5.78125s-2.589844 5.777344-5.777344 5.777344zm199.582031 35.621094c-1.222656 0-2.417968-.167969-3.578124-.46875l1.054687-20.152344h10.980469c1.390625 0 2.746094-.140625 4.058594-.402344 1.121093 2.058594 1.722656 4.375 1.722656 6.789063-.003906 7.847656-6.386719 14.234375-14.238282 14.234375zm-107.023437-160.578125c0-1.160157.941406-2.105469 2.101563-2.105469h18.71875c1.160156 0 2.105468.945312 2.105468 2.105469v64.789062c0 1.164063-.945312 2.109375-2.105468 2.109375h-18.71875c-1.160157 0-2.101563-.945312-2.101563-2.109375zm-61.832031 35.765625c12.464844-13.710938 28.875-22.917969 46.832031-26.410156v55.4375c0 9.429687 7.671875 17.105468 17.101563 17.105468h18.71875c9.429687 0 17.105468-7.675781 17.105468-17.105468v-55.421876c39.722656 7.71875 69.019532 42.785157 69.019532 83.835938v5.191406h-190.96875v-5.191406c0-21.296875 7.882812-41.695312 22.191406-57.441406zm-22.269532 124.8125c-7.847656 0-14.234374-6.386719-14.234374-14.234375 0-2.421875.59375-4.722657 1.722656-6.789063 1.316406.261719 2.667968.40625 4.058594.40625h10.976562l1.054688 20.15625c-1.15625.296875-2.347657.460938-3.578126.460938zm58.789063 122.476562c-1.230469.933594-2.429687.628906-3.035156.363282-.605469-.261719-1.644531-.933594-1.800781-2.464844l-1.824219-17.722656c6.757812 3.695312 14.019531 6.570312 21.671875 8.457031zm78.386719-2.101562c-.15625 1.53125-1.195313 2.203125-1.804688 2.46875-.605468.261718-1.804687.5625-3.03125-.363282l-15.015625-11.371093c7.652344-1.886719 14.917969-4.761719 21.671875-8.457031zm-41.613282-21.632813c-40.242187 0-73.417968-31.480469-75.519531-71.671875l-2.5-47.691406h156.039063l-2.5 47.691406c-2.101563 40.191406-35.273438 71.671875-75.519532 71.671875zm0 0"/><path d="m225.070312 184.46875c-4.140624 0-7.5 3.402344-7.5 7.546875s3.359376 7.5 7.5 7.5c4.144532 0 7.5-3.355469 7.5-7.5v-.09375c0-4.144531-3.355468-7.453125-7.5-7.453125zm0 0"/><path d="m302.570312 184.46875c-4.144531 0-7.5 3.402344-7.5 7.546875s3.355469 7.5 7.5 7.5c4.140626 0 7.5-3.355469 7.5-7.5v-.09375c0-4.144531-3.359374-7.453125-7.5-7.453125zm0 0"/><path d="m287.546875 216.445312c-3.976563-1.140624-8.136719 1.15625-9.28125 5.136719-1.84375 6.40625-7.78125 10.882813-14.445313 10.882813-6.660156 0-12.601562-4.476563-14.441406-10.882813-1.144531-3.980469-5.304687-6.277343-9.28125-5.136719-3.980468 1.148438-6.28125 5.300782-5.136718 9.28125 3.679687 12.796876 15.546874 21.738282 28.859374 21.738282s25.179688-8.941406 28.863282-21.738282c1.140625-3.980468-1.15625-8.132812-5.136719-9.28125zm0 0"/><path d="m330.6875 387.734375h-32.296875c-4.144531 0-7.5 3.359375-7.5 7.5 0 4.144531 3.355469 7.5 7.5 7.5h32.296875c4.140625 0 7.5-3.355469 7.5-7.5 0-4.140625-3.359375-7.5-7.5-7.5zm0 0"/><path d="m229.253906 387.734375h-32.296875c-4.144531 0-7.5 3.359375-7.5 7.5 0 4.144531 3.355469 7.5 7.5 7.5h32.296875c4.140625 0 7.5-3.355469 7.5-7.5 0-4.140625-3.359375-7.5-7.5-7.5zm0 0"/><path d="m330.6875 450.648438h-32.296875c-4.144531 0-7.5 3.359374-7.5 7.5 0 4.144531 3.355469 7.5 7.5 7.5h32.296875c4.140625 0 7.5-3.355469 7.5-7.5 0-4.140626-3.359375-7.5-7.5-7.5zm0 0"/><path d="m95.617188 459.054688c-4.144532 0-7.5 3.355468-7.5 7.5 0 4.140624 3.355468 7.5 7.5 7.5h13.898437c4.144531 0 7.5-3.359376 7.5-7.5 0-4.144532-3.355469-7.5-7.5-7.5zm0 0"/><path d="m475.714844 335.757812v-112.980468h3.9375c4.914062 0 9.632812-2.085938 12.941406-5.71875 3.3125-3.632813 4.949219-8.523438 4.492188-13.417969l-4.140626-44.425781c-.84375-9.058594-8.339843-15.886719-17.433593-15.886719h-14.597657c-9.097656 0-16.589843 6.828125-17.433593 15.886719l-4.144531 44.425781c-.453126 4.894531 1.183593 9.785156 4.492187 13.417969 3.3125 3.632812 8.027344 5.71875 12.945313 5.71875h3.9375v112.980468c-13.394532 1.550782-23.832032 12.957032-23.832032 26.761719v14.980469c0 4.144531 3.355469 7.5 7.5 7.5 4.144532 0 7.5-3.355469 7.5-7.5v-14.980469c0-6.589843 5.359375-11.949219 11.949219-11.949219h8.765625c6.589844 0 11.949219 5.359376 11.949219 11.949219v107.902344c0 6.589844-5.359375 11.949219-11.949219 11.949219h-8.765625c-6.589844 0-11.949219-5.359375-11.949219-11.949219v-58.0625c0-4.144531-3.355468-7.5-7.5-7.5-4.144531 0-7.5 3.355469-7.5 7.5v58.0625c0 14.859375 12.089844 26.949219 26.949219 26.949219h8.765625c14.859375 0 26.949219-12.089844 26.949219-26.949219v-107.902344c.003906-13.804687-10.433594-25.210937-23.828125-26.761719zm-20.792969-128.800781c-.28125-.304687-.734375-.964843-.644531-1.921875l4.140625-44.429687c.121093-1.296875 1.195312-2.277344 2.496093-2.277344h14.597657c1.304687 0 2.378906.980469 2.5 2.277344l4.140625 44.425781c.089844.964844-.363282 1.621094-.644532 1.925781-.277343.308594-.890624.820313-1.855468.820313h-22.875c-.964844 0-1.578125-.511719-1.855469-.820313zm0 0"/><path d="m28.710938 267.378906c-3.6875 3.210938-6.03125 7.929688-6.03125 13.191406v23.148438c0 7.941406 5.316406 14.652344 12.570312 16.792969.957031 13.089843 11.90625 23.449219 25.238281 23.449219 13.328125 0 24.277344-10.359376 25.238281-23.449219 7.253907-2.140625 12.570313-8.851563 12.570313-16.792969v-23.148438c0-5.273437-2.355469-10-6.054687-13.214843 1.523437-11.226563 6.300781-21.851563 13.675781-30.234375 9.710937-11.035156 15.058593-25.210938 15.058593-39.921875 0-9.121094-1.992187-17.902344-5.925781-26.101563-1.789062-3.738281-6.269531-5.316406-10.003906-3.523437-3.734375 1.789062-5.3125 6.269531-3.519531 10.003906 2.953125 6.164063 4.449218 12.765625 4.449218 19.621094 0 11.0625-4.019531 21.71875-11.316406 30.015625-8.820312 10.019531-14.695312 22.550781-16.933594 35.84375h-34.507812c-2.285156-13.214844-8.21875-25.707032-17.296875-36.300782-7.382813-8.617187-11.253906-19.628906-10.898437-31.011718.734374-23.734375 19.894531-43.0625 43.613281-43.996094 7.648437-.296875 14.984375 1.238281 21.808593 4.578125 3.722657 1.824219 8.210938.277344 10.03125-3.441406 1.820313-3.71875.28125-8.210938-3.4375-10.03125-8.953124-4.382813-18.972656-6.488281-28.992187-6.09375-31.550781 1.246093-57.035156 26.949219-58.015625 58.519531-.472656 15.128906 4.675781 29.773438 14.5 41.238281 7.714844 9.003907 12.601562 19.660157 14.179688 30.859375zm52.074218 10.679688c1.382813 0 2.507813 1.128906 2.507813 2.511718v3.851563h-45.613281v-3.851563c0-1.382812 1.125-2.511718 2.511718-2.511718zm2.507813 25.664062c0 1.382813-1.125 2.507813-2.507813 2.507813h-40.59375c-1.386718 0-2.511718-1.125-2.511718-2.507813v-4.300781h45.613281zm-22.804688 25.238282c-4.792969 0-8.824219-3.289063-9.972656-7.730469h19.945313c-1.152344 4.441406-5.179688 7.730469-9.972657 7.730469zm0 0"/></svg>