<svg id="Capa_1" enable-background="new 0 0 512 512" height="512" viewBox="0 0 512 512" width="512" xmlns="http://www.w3.org/2000/svg"><g><g><path d="m395.238 383.19v100.38c0 11.56-9.37 20.93-20.93 20.93h-325.07c-11.56 0-20.93-9.37-20.93-20.93v-100.38c0-23.11 18.73-41.83 41.83-41.83h283.27c23.1 0 41.83 18.72 41.83 41.83z" fill="#bec6ed"/><g><path d="m395.238 383.19v68.69c-2.9.34-5.86.51-8.85.51-42.67 0-77.25-34.59-77.25-77.25 0-12.11 2.79-23.58 7.76-33.78h36.51c23.1 0 41.83 18.72 41.83 41.83z" fill="#a2aee6"/></g><path d="m353.407 341.355h-40.042c23.103 0 41.832 18.729 41.832 41.832v100.381c0 11.561-9.372 20.933-20.933 20.933h40.042c11.561 0 20.933-9.372 20.933-20.933v-100.381c0-23.103-18.729-41.832-41.832-41.832z" fill="#a2aee6"/><path d="m243.842 341.355h46.661v57.447c0 7.972-6.463 14.435-14.435 14.435h-8.896l-55.401 91.262v-60.507z" fill="#838383"/><path d="m270.481 341.355v57.447c0 7.972-6.463 14.434-14.434 14.434-5.523 0-10.646 2.883-13.512 7.605l-30.763 50.675v32.982l55.401-91.262h8.896c7.972 0 14.434-6.463 14.434-14.434v-57.447z" fill="#696969"/><path d="m179.701 341.355 32.071 102.636 32.07-102.636z" fill="#e5e1e5"/><path d="m223.82 341.355-22.059 70.598 10.011 32.038 32.07-102.636z" fill="#d7d0d6"/><path d="m243.842 291.514h-64.142c-31.406 0-56.865-25.459-56.865-56.865v-113.986h177.871v113.986c.001 31.406-25.458 56.865-56.864 56.865z" fill="#ffcebf"/><path d="m280.685 120.663v113.986c0 31.406-25.459 56.865-56.865 56.865h20.022c31.406 0 56.865-25.459 56.865-56.865v-113.986z" fill="#ffb09e"/><path d="m97.86 226.084h24.976v-68.282h-24.976c-10.849 0-19.645 8.795-19.645 19.645v28.993c.001 10.848 8.796 19.644 19.645 19.644z" fill="#ffcebf"/><path d="m102.814 157.802h20.022v68.282h-20.022z" fill="#ffb09e"/><path d="m300.707 226.084h24.976c10.849 0 19.645-8.795 19.645-19.645v-28.993c0-10.849-8.795-19.645-19.645-19.645h-24.976z" fill="#ffcebf"/><path d="m325.683 157.802h-20.022c10.849 0 19.645 8.795 19.645 19.645v28.993c0 10.849-8.795 19.645-19.645 19.645h20.022c10.849 0 19.645-8.795 19.645-19.645v-28.993c0-10.85-8.796-19.645-19.645-19.645z" fill="#ffb09e"/><path d="m179.701 341.355h-46.661v57.447c0 7.972 6.463 14.435 14.435 14.435h8.896l55.401 91.262v-60.507z" fill="#838383"/><path d="m179.701 341.355h-20.022l30.652 98.096c.94 3.009 1.419 6.143 1.419 9.296v22.769l20.022 32.982v-60.507z" fill="#696969"/><path d="m179.701 291.514h64.142v49.841c-18.265 16.324-45.877 16.324-64.142 0z" fill="#ffb09e"/><path d="m223.82 291.514v49.841c-6.459 5.773-14.089 9.494-22.06 11.184 14.567 3.088 30.276-.633 42.082-11.184v-49.841z" fill="#ffa78f"/><path d="m122.836 120.663v37.138l47.356 22.655c5.901 2.823 12.849 2.348 18.311-1.251l23.269-15.334 23.269 15.334c5.462 3.599 12.41 4.074 18.311 1.251l47.356-22.655v-37.138z" fill="#4f66d0"/><path d="m280.685 120.663v30.455c0 2.243-1.311 4.279-3.353 5.207l-36.146 16.427c-4.969 2.377-10.678 2.406-15.62.21l9.474 6.243c5.462 3.599 12.41 4.074 18.311 1.251l47.356-22.655v-37.138z" fill="#3b58c4"/><g><path d="m109.268 120.663h205.008c9.269 0 16.783-7.514 16.783-16.783 0-9.269-7.514-16.783-16.783-16.783h-205.008c-9.269 0-16.783 7.514-16.783 16.783-.001 9.269 7.514 16.783 16.783 16.783z" fill="#ffd15b"/><path d="m314.276 87.096h-30.006c9.269 0 16.783 7.514 16.783 16.783 0 9.269-7.514 16.783-16.783 16.783h30.006c9.269 0 16.783-7.514 16.783-16.783 0-9.268-7.514-16.783-16.783-16.783z" fill="#ffc344"/><path d="m166.393 7.5h90.757c30.959 0 56.057 25.098 56.057 56.057v23.539h-202.871v-23.539c0-30.959 25.098-56.057 56.057-56.057z" fill="#ffe177"/><path d="m257.15 7.5h-30.006c30.959 0 56.057 25.098 56.057 56.057v23.539h30.006v-23.539c0-30.959-25.097-56.057-56.057-56.057z" fill="#ffd15b"/></g><path d="m102.386 504.498h30.654v-173.228c0-8.465-6.862-15.327-15.327-15.327-8.465 0-15.327 6.862-15.327 15.327z" fill="#d77f4a"/><path d="m71.732 504.498h30.654v-173.228c0-8.465-6.862-15.327-15.327-15.327-8.465 0-15.327 6.862-15.327 15.327z" fill="#e19974"/><path d="m71.732 504.498h30.654v-173.228c0-8.465-6.862-15.327-15.327-15.327-8.465 0-15.327 6.862-15.327 15.327z" fill="#e19974"/><g><circle cx="406.444" cy="375.142" fill="#ffd15b" r="77.248"/></g><path d="m406.444 297.894c-5.149 0-10.177.515-15.045 1.476 35.459 7.002 62.203 38.259 62.203 75.772s-26.744 68.771-62.203 75.772c4.867.961 9.895 1.476 15.045 1.476 42.663 0 77.248-34.585 77.248-77.248s-34.585-77.248-77.248-77.248z" fill="#ffc344"/></g><g><path d="m194.354 239.589c.41.205 7.077 3.454 17.115 3.454 4.959 0 10.742-.793 16.998-3.139 3.878-1.455 5.843-5.777 4.389-9.656s-5.778-5.842-9.656-4.389c-12.47 4.676-21.687.523-22.2.283-3.693-1.804-8.158-.299-9.999 3.385-1.853 3.704-.351 8.21 3.353 10.062z"/><path d="m300.707 459.728h-24.642c-4.143 0-7.5 3.358-7.5 7.5s3.357 7.5 7.5 7.5h24.642c4.143 0 7.5-3.358 7.5-7.5s-3.357-7.5-7.5-7.5z"/><path d="m386.196 379.383c1.398 2.039 3.713 3.258 6.186 3.258h17.188l-9.11 23.583c-1.492 3.864.43 8.206 4.293 9.699.889.343 1.803.506 2.701.506 3.01 0 5.849-1.824 6.998-4.799l13.052-33.786c.892-2.307.588-4.905-.811-6.944-1.398-2.039-3.713-3.258-6.186-3.258h-17.188l9.11-23.583c1.492-3.864-.43-8.206-4.293-9.699-3.866-1.494-8.207.43-9.699 4.293l-13.052 33.786c-.891 2.307-.587 4.905.811 6.944z"/><path d="m472.499 322.043c-11.871-14.75-28.513-25.215-46.859-29.465-4.034-.935-8.064 1.579-8.999 5.614-.935 4.036 1.579 8.064 5.614 9 15.09 3.496 28.783 12.11 38.559 24.257 10.062 12.501 15.379 27.61 15.379 43.693 0 38.459-31.289 69.748-69.748 69.748s-69.748-31.289-69.748-69.748c-.691-30.794 22.795-61.188 53.964-67.957 4.036-.933 6.551-4.961 5.618-8.997-.935-4.036-4.962-6.552-8.997-5.617-22.716 5.245-43.094 20.28-54.846 41.289l-81.092-.004v-35.293c31.851-3.621 57.526-31.674 56.864-64.979h17.476c14.968 0 27.145-12.177 27.145-27.145v-28.993c0-14.968-12.177-27.145-27.145-27.145h-17.476v-22.139h6.068c13.39 0 24.283-10.894 24.283-24.283s-10.894-24.283-24.283-24.283h-73.427v-64.596h16.302c22.856 0 42.843 16.208 47.523 38.538.85 4.054 4.828 6.653 8.88 5.802 4.054-.85 6.651-4.825 5.802-8.879-6.129-29.239-32.291-50.461-62.206-50.461h-90.758c-35.045 0-63.557 28.512-63.557 63.557v16.911c-10.277 2.827-17.852 12.249-17.852 23.412 0 13.39 10.894 24.283 24.283 24.283h6.068v22.139h-17.474c-14.968 0-27.145 12.177-27.145 27.145v28.993c0 14.968 12.177 27.145 27.145 27.145h17.476c-.633 32.738 24.543 61.398 56.865 64.979v35.292h-31.661c1.279-12.813-9.218-25.466-22.827-25.412-5.894 0-11.273 2.245-15.327 5.926-4.054-3.68-9.433-5.926-15.326-5.926-13.27-.119-24.108 12.134-22.827 25.782-24.425 2.929-43.425 23.763-43.425 48.964v100.38c0 15.676 12.754 28.43 28.431 28.43h325.069c15.677 0 28.431-12.754 28.431-28.43v-23.774c1.23.053 2.463.094 3.706.094 46.73 0 84.748-38.018 84.748-84.748-.001-19.263-6.639-38.12-18.694-53.099zm-331.959 26.817h33.649l30.083 96.275v32.555l-41.49-68.346c-1.36-2.24-3.79-3.608-6.411-3.608h-8.896c-3.824 0-6.935-3.111-6.935-6.935zm71.231 69.984-19.098-61.118c6.158 2.251 12.626 3.385 19.098 3.385 6.471 0 12.94-1.135 19.099-3.387zm24.572-81.016c-14.509 11.041-34.633 11.041-49.142 0v-38.814h49.142zm-95.803 81.778c2.181.729 4.511 1.13 6.935 1.13h4.675l46.296 76.264h-57.906zm78.731 25.529 30.084-96.275h33.648v49.942c0 3.824-3.11 6.935-6.934 6.935h-8.896c-2.621 0-5.051 1.368-6.411 3.608l-41.49 68.346v-32.556zm118.556-267.689v28.993c0 6.696-5.448 12.145-12.145 12.145h-17.476v-53.282h17.476c6.697 0 12.145 5.448 12.145 12.144zm-111.978-97.849h-28.154v-64.597h28.154zm-108.013-16.04c0-26.774 21.782-48.557 48.557-48.557h16.302v64.597h-64.858v-16.04zm-17.852 40.323c0-5.119 4.164-9.283 9.283-9.283h205.008c5.119 0 9.283 4.165 9.283 9.283s-4.164 9.283-9.283 9.283h-205.007c-5.12 0-9.284-4.164-9.284-9.283zm193.223 24.283v24.912l-43.092 20.616c-3.506 1.677-7.699 1.392-10.947-.749l-23.199-15.288c-2.032-1.272-5.341-2.092-8.399.004l-23.193 15.284c-3.246 2.139-7.439 2.425-10.947.749l-43.093-20.616v-24.912zm-195.347 90.42c-6.696 0-12.145-5.448-12.145-12.145v-28.993c0-6.696 5.448-12.145 12.145-12.145h17.476v53.282h-17.476zm32.476 16.066v-64.946l36.62 17.519c8.224 3.934 18.061 3.262 25.674-1.755l11.642-7.672v14.147c0 4.142 3.357 7.5 7.5 7.5s7.5-3.358 7.5-7.5v-14.147l11.643 7.673c4.322 2.848 9.359 4.295 14.413 4.295 3.848 0 7.706-.84 11.261-2.541l36.619-17.519v64.946c0 27.22-22.145 49.365-49.364 49.365h-64.142c-27.221 0-49.366-22.145-49.366-49.365zm-51.104 96.622c0-4.316 3.512-7.827 7.827-7.827s7.826 3.511 7.826 7.827v103.729c0 4.142 3.357 7.5 7.5 7.5s7.5-3.358 7.5-7.5v-103.729c0-4.316 3.512-7.827 7.827-7.827s7.827 3.511 7.827 7.827v165.728h-15.654v-26.849c0-4.142-3.357-7.5-7.5-7.5s-7.5 3.358-7.5 7.5v26.849h-15.653zm-43.424 152.299v-100.38c0-16.915 12.301-31.003 28.425-33.811v147.621h-14.995c-7.405 0-13.43-6.025-13.43-13.43zm351.93 0c0 7.405-6.025 13.43-13.431 13.43h-149.21l46.296-76.264h4.676c12.094 0 21.934-9.84 21.934-21.935v-49.941h27.903c-2.754 8.441-4.21 17.314-4.21 26.282 0 40.302 28.286 74.099 66.042 82.642z"/></g></g></svg>