<svg id="Layer_1" enable-background="new 0 0 512 512" height="512" viewBox="0 0 512 512" width="512" xmlns="http://www.w3.org/2000/svg"><g clip-rule="evenodd" fill-rule="evenodd"><g><g><path d="m162.971 241.193h197.079c5.5 0 10 4.5 10 10v148.479c0 5.5-4.5 10-10 10h-197.079c-5.5 0-10-4.499-10-10v-148.48c0-5.5 4.5-9.999 10-9.999z" fill="#837683"/><path d="m160.971 241.193h201.079c4.4 0 8 3.6 8 8v18.032c0 4.4-3.6 8-8 8h-201.079c-4.4 0-8-3.6-8-8v-18.032c0-4.401 3.6-8 8-8z" fill="#685e68"/><path d="m244.494 275.224v-44.992c0-4.4 3.6-8 8-8h18.032c4.4 0 8 3.6 8 8v44.992z" fill="#a79ba7"/><circle cx="242.811" cy="367.176" fill="#ffe177" r="18.5"/><path d="m242.811 348.676c10.217 0 18.5 8.283 18.5 18.5s-8.283 18.5-18.5 18.5c-1.035 0-2.049-.087-3.037-.25 8.772-1.449 15.463-9.068 15.463-18.25 0-9.183-6.691-16.801-15.463-18.25.988-.164 2.002-.25 3.037-.25z" fill="#ffd064"/><ellipse cx="274.929" cy="316.515" fill="#ffe177" rx="18.5" ry="18.5" transform="matrix(.973 -.23 .23 .973 -65.365 71.633)"/><path d="m274.93 298.015c10.217 0 18.5 8.283 18.5 18.5s-8.283 18.5-18.5 18.5c-1.035 0-2.049-.087-3.037-.25 8.772-1.449 15.463-9.068 15.463-18.25s-6.691-16.801-15.463-18.25c.988-.164 2.002-.25 3.037-.25z" fill="#ffd064"/><circle cx="321.444" cy="350.527" fill="#ffe177" r="18.5"/><path d="m321.444 332.028c10.217 0 18.5 8.283 18.5 18.5s-8.283 18.5-18.5 18.5c-1.035 0-2.049-.087-3.037-.25 8.772-1.449 15.463-9.068 15.463-18.25s-6.691-16.801-15.463-18.25c.988-.164 2.002-.25 3.037-.25z" fill="#ffd064"/></g><g><path d="m429.472 28.413c6.769 1.611 13.233 4.295 19.158 7.942l12.449-5.529 14.672 14.672-5.527 12.445c3.649 5.925 6.333 12.393 7.944 19.163l12.701 4.889v20.749l-12.704 4.89c-1.611 6.769-4.294 13.233-7.942 19.158l5.529 12.449-14.672 14.672-12.445-5.527c-5.926 3.649-12.393 6.333-19.163 7.944l-4.889 12.701h-20.749l-4.89-12.704c-6.769-1.611-13.233-4.294-19.158-7.942l-12.449 5.529-14.672-14.672 5.527-12.445c-3.65-5.925-6.333-12.393-7.944-19.163l-12.701-4.889v-20.751l12.702-4.89c1.611-6.769 4.295-13.235 7.943-19.159l-5.528-12.448 14.672-14.672 12.449 5.529c5.924-3.648 12.389-6.331 19.158-7.942l4.89-12.704h20.749z" fill="#ffe177"/><path d="m379.786 148.383-12.449 5.529-1.917-1.917 11.672-5.184c.886.546 1.784 1.07 2.694 1.572zm49.686-119.97c6.769 1.611 13.233 4.295 19.158 7.942l-3.539 1.571c-5.924-3.648-15.083-7.903-21.852-9.514l-4.89-12.703h6.233zm19.162 119.972c-5.926 3.649-12.393 6.333-19.163 7.944l-4.889 12.701h-6.233l4.889-12.701c6.77-1.611 15.931-5.866 21.856-9.515zm-83.214-115.642 1.917-1.917 12.449 5.529c-.91.502-1.808 1.026-2.694 1.571zm91.343 0 4.316-1.917 14.672 14.672-5.527 12.445c3.649 5.925 6.333 12.393 7.944 19.163l12.701 4.889v20.749l-12.704 4.89c-1.611 6.769-4.294 13.233-7.942 19.158l5.529 12.449-14.672 14.672-4.316-1.917 12.755-12.755-5.529-12.449c3.648-5.924 6.331-12.389 7.942-19.158l12.704-4.89v-20.75l-12.701-4.889c-1.611-6.77-4.295-13.238-7.944-19.163l5.528-12.445z" fill="#ffd064"/><ellipse cx="414.208" cy="92.369" fill="#eceff1" rx="36.185" ry="36.185" transform="matrix(.707 -.707 .707 .707 56.004 319.943)"/><path d="m414.208 56.184c-19.985 0-36.184 16.199-36.184 36.185 0 19.985 16.199 36.184 36.184 36.184.969 0 1.929-.039 2.878-.114-18.64-1.467-33.307-17.054-33.307-36.07 0-19.017 14.667-34.604 33.307-36.071-.95-.074-1.91-.114-2.878-.114z" fill="#d1d1d6"/></g><g><path d="m477.742 444.862h-27.287v-200.597l-9.365-20.367 9.365-40.672 27.287.001 9.365 40.671-9.365 20.368z" fill="#d8ecfe"/><path d="m477.742 444.862h-10.604v-200.597l9.365-20.367-9.365-40.672h10.604l9.365 40.672-9.365 20.367z" fill="#c4e2ff"/><path d="m486.677 496.292h-45.157c-2.333 0-4.241-1.909-4.241-4.242v-108.156c0-4.583 3.749-8.333 8.332-8.333h36.975c4.583 0 8.332 3.749 8.332 8.333v108.157c0 2.333-1.908 4.241-4.241 4.241z" fill="#f1ba84"/><path d="m486.677 496.292h-45.157c-2.333 0-4.241-1.908-4.241-4.241v-6.363h38.795c2.333 0 4.241-1.908 4.241-4.241v-105.886h2.271c4.583 0 8.332 3.749 8.332 8.332v108.157c.001 2.334-1.908 4.242-4.241 4.242z" fill="#e3a76f"/></g><g><path d="m355.155 267.353c-14.941-6.278-25.434-21.049-25.434-38.271.001-16.173 9.254-30.184 22.754-37.03l.001 41.72 18.74 10.82 18.74-10.82.001-41.72c13.5 6.846 22.754 20.857 22.755 37.03 0 17.223-10.493 31.994-25.434 38.271v153.059c14.942 6.278 25.434 21.049 25.434 38.271.001 16.174-9.253 30.184-22.754 37.03v-41.72l-18.74-10.82-18.74 10.82v41.719c-13.5-6.846-22.754-20.856-22.754-37.03-.001-17.222 10.492-31.993 25.434-38.271v-153.058z" fill="#9facba"/><path d="m347.034 262.804c-.157-.113-.314-.226-.469-.341.156.068.312.136.469.202zm-2.68-65.347c2.474-2.104 5.198-3.922 8.121-5.405l.001 41.72 10.62 6.132-18.74-10.82zm45.602-4.689v-.716c13.5 6.847 22.754 20.857 22.754 37.03 0 17.222-10.493 31.994-25.434 38.271v153.056c-2.512-1.805-5.232-3.336-8.121-4.55v-153.196c14.941-6.277 25.434-21.048 25.434-38.271 0-12.67-5.68-24.013-14.633-31.624zm-2.212 227.846c14.691 6.388 24.965 21.028 24.965 38.069.001 16.174-9.253 30.184-22.754 37.03v-10.093c8.953-7.61 14.634-18.954 14.634-31.626 0-13.685-6.626-25.822-16.845-33.38zm-16.529 22.559-18.74 10.82v41.719c-2.923-1.482-5.647-3.301-8.121-5.404v-41.004l18.74-10.82z" fill="#8d9ca8"/></g><g><path d="m33.079 495.711 239.783-.001c6.547 0 11.394-5.933 10.087-12.349-12.328-60.504-65.834-106.033-129.978-106.033-64.145 0-117.651 45.53-129.979 106.034-1.307 6.415 3.541 12.349 10.087 12.349z" fill="#8ac9fe"/><path d="m249.419 495.71h23.444c6.547 0 11.394-5.933 10.087-12.348-12.328-60.505-65.834-106.034-129.978-106.034-3.95 0-7.86.175-11.722.513 58.855 5.154 106.688 48.742 118.256 105.521 1.307 6.415-3.54 12.348-10.087 12.348z" fill="#60b7ff"/><circle cx="152.972" cy="310.257" fill="#f6dccd" r="67.07"/><path d="m152.972 243.187c37.042 0 67.07 30.028 67.07 67.07 0 37.041-30.029 67.07-67.07 67.07-3.171 0-6.29-.226-9.344-.651 32.618-4.548 57.726-32.549 57.726-66.419s-25.109-61.871-57.726-66.419c3.053-.425 6.172-.651 9.344-.651z" fill="#f1cbbc"/><path d="m80.634 318.046h144.676c5.332 0 9.695-4.362 9.695-9.694s-4.363-9.695-9.695-9.695h-1.955c.141-1.82.215-3.658.215-5.514 0-31.404-20.508-58.011-48.859-67.178 1.065-11.111-12.589-14.597-21.739-14.593-9.15-.004-22.804 3.482-21.739 14.593-28.352 9.167-48.859 35.774-48.859 67.178 0 1.856.074 3.695.215 5.514h-1.955c-5.332 0-9.695 4.363-9.695 9.695s4.363 9.694 9.695 9.694z" fill="#ffe177"/><path d="m215.102 318.046h10.208c5.332 0 9.695-4.362 9.695-9.695 0-5.332-4.362-9.695-9.695-9.695h-1.955c.141-1.82.215-3.658.215-5.514 0-31.404-20.508-58.011-48.859-67.178 1.065-11.11-12.589-14.597-21.739-14.593-1.599-.001-3.335.105-5.106.34 8.366 1.107 17.511 5.084 16.632 14.253 28.352 9.167 48.859 35.774 48.859 67.178 0 1.856-.074 3.695-.215 5.514h1.955c5.332 0 9.695 4.363 9.695 9.695-.001 5.331-4.361 9.692-9.69 9.695z" fill="#ffd064"/><path d="m146.469 263.587h13.006c5.96 0 10.925-4.362 11.693-10.273l3.492-26.891c1.492-11.492-12.434-14.422-21.688-15.052-9.254.63-23.18 3.56-21.688 15.052l3.492 26.891c.767 5.911 5.732 10.273 11.693 10.273z" fill="#ffd064"/><path d="m146.469 263.587h13.006c5.961 0 10.926-4.362 11.693-10.273l3.492-26.891c.705-5.426-2.029-8.942-6.085-11.21.321 1.267.406 2.676.202 4.246l-3.491 26.891c-.768 5.911-5.733 10.273-11.693 10.273-3.466 0-7.801 0-13.006 0-1.929 0-3.754-.457-5.366-1.276 1.514 4.851 5.994 8.24 11.248 8.24z" fill="#ffc338"/><path d="m80.634 298.657c-5.333 0-9.695 4.363-9.695 9.695s4.362 9.695 9.695 9.695h144.676c5.332 0 9.695-4.362 9.695-9.695 0-5.332-4.362-9.695-9.695-9.695-48.226 0-96.451 0-144.676 0z" fill="#ffc338"/><path d="m70.939 308.351c0 5.332 4.362 9.695 9.695 9.695h144.676c5.332 0 9.695-4.362 9.695-9.695z" fill="#ffd064"/></g><g><path d="m138.507 30.18 63.383 109.783c5.211 9.026 5.211 19.919 0 28.945s-14.644 14.473-25.067 14.473h-126.767c-10.422 0-19.855-5.447-25.066-14.473-5.212-9.026-5.212-19.919 0-28.945l63.384-109.783c5.211-9.026 14.644-14.472 25.066-14.472s19.856 5.446 25.067 14.472z" fill="#ffe177"/><path d="m138.507 30.18 63.383 109.783c5.211 9.026 5.211 19.919 0 28.945s-14.644 14.473-25.067 14.473h-16.592c10.423 0 19.856-5.447 25.067-14.473s5.211-19.919 0-28.945l-63.383-109.783c-3.78-6.547-9.782-11.21-16.771-13.278 2.646-.783 5.433-1.195 8.296-1.195 10.422.001 19.856 5.447 25.067 14.473z" fill="#ffc338"/><path d="m120.3 53.351-2.392 41.074h33.696l-47.563 58.837 4.931-42.262h-33.695z" fill="#fe646f"/><path d="m120.3 53.351-.645 11.089-31.198 39.946h33.696l-3.61 30.936-14.502 17.94 4.931-42.262h-33.695z" fill="#fd4755"/></g></g><path d="m274.972 309.491c4.029 0 7.319 3.28 7.319 7.32 0 4.03-3.29 7.319-7.319 7.319-4.043 0-7.319-3.289-7.319-7.319-.001-4.04 3.275-7.32 7.319-7.32zm46.508 34.011c4.039 0 7.319 3.289 7.319 7.319 0 4.04-3.281 7.32-7.319 7.32-4.029 0-7.319-3.28-7.319-7.32 0-4.03 3.29-7.319 7.319-7.319zm-78.633 31.289c-4.038 0-7.319-3.28-7.319-7.321 0-4.039 3.281-7.32 7.319-7.32 4.043 0 7.324 3.28 7.324 7.32 0 4.042-3.28 7.321-7.324 7.321zm4.971-30.1c-1.6-.351-3.257-.54-4.97-.54-12.859 0-23.318 10.46-23.318 23.319 0 12.861 10.459 23.321 23.318 23.321 12.864 0 23.323-10.46 23.323-23.321 0-5.34-1.812-10.269-4.839-14.2l8.67-13.679c1.6.349 3.257.541 4.971.541 4.787 0 9.24-1.451 12.949-3.941l11.16 8.16c-.589 2.059-.918 4.229-.918 6.47 0 12.86 10.468 23.319 23.318 23.319 12.859 0 23.318-10.46 23.318-23.319 0-12.861-10.459-23.321-23.318-23.321-4.782 0-9.24 1.451-12.949 3.94l-11.16-8.16c.589-2.059.918-4.229.918-6.47 0-12.86-10.459-23.319-23.318-23.319-12.864 0-23.323 10.46-23.323 23.319 0 5.341 1.812 10.261 4.843 14.199zm-136.956-265.909-.904 15.468c-.127 2.201.664 4.361 2.174 5.961 1.506 1.599 3.62 2.509 5.818 2.509h16.94l-19.661 24.32 1.732-14.819c.259-2.271-.461-4.54-1.972-6.249-1.521-1.701-3.7-2.681-5.978-2.681h-17.302zm-35.542 40.508h24.702l-3.893 33.34c-.41 3.541 1.572 6.921 4.848 8.301 1.003.419 2.062.629 3.102.629 2.363 0 4.669-1.05 6.222-2.979l47.558-58.831c1.939-2.401 2.33-5.7.998-8.479-1.327-2.781-4.128-4.551-7.216-4.551h-25.215l1.902-32.61c.202-3.5-1.888-6.72-5.168-7.95-3.271-1.239-6.971-.2-9.132 2.559l-45.021 57.65c-1.878 2.41-2.217 5.681-.875 8.43 1.337 2.752 4.129 4.491 7.188 4.491zm-43.36 24.971c-3.789 6.551-3.789 14.38 0 20.94 3.78 6.561 10.562 10.469 18.14 10.469h126.761c7.569 0 14.347-3.909 18.135-10.469 3.794-6.56 3.794-14.389 0-20.94l-63.378-109.79c-3.789-6.548-10.567-10.469-18.14-10.469-7.568 0-14.351 3.921-18.14 10.469zm18.14 47.41h126.761c13.358 0 25.318-6.9 31.997-18.471 6.684-11.57 6.684-25.381 0-36.94l-63.387-109.791c-6.67-11.555-18.639-18.47-31.993-18.47-13.358 0-25.318 6.914-31.997 18.47l-63.383 109.792c-6.679 11.559-6.679 25.369 0 36.94 6.679 11.57 18.64 18.47 32.002 18.47zm364.148-70.82c-15.547 0-28.189-12.65-28.189-28.189 0-15.54 12.642-28.181 28.189-28.181 15.542 0 28.18 12.641 28.18 28.181s-12.638 28.189-28.18 28.189zm0-72.369c-24.367 0-44.188 19.82-44.188 44.18 0 24.369 19.821 44.19 44.188 44.19 24.363 0 44.183-19.821 44.183-44.19.001-24.36-19.82-44.18-44.183-44.18zm68.659 49.059v-9.761l-7.578-2.92c-2.462-.939-4.288-3.039-4.909-5.609-1.412-5.941-3.761-11.6-6.971-16.82-1.379-2.25-1.572-5.03-.499-7.441l3.3-7.43-6.9-6.899-7.432 3.299c-2.41 1.07-5.196.881-7.446-.5-5.21-3.208-10.873-5.56-16.808-6.968-2.575-.611-4.674-2.451-5.616-4.911l-2.918-7.578h-9.758l-2.923 7.578c-.951 2.46-3.05 4.301-5.62 4.911-5.94 1.408-11.588 3.76-16.808 6.968-2.25 1.381-5.032 1.57-7.442.5l-7.427-3.299-6.91 6.899 3.295 7.43c1.073 2.411.894 5.201-.499 7.441-3.205 5.22-5.549 10.88-6.966 16.82-.612 2.57-2.452 4.67-4.914 5.609l-7.569 2.92v9.761l7.569 2.92c2.462.951 4.302 3.051 4.914 5.61 1.407 5.95 3.761 11.611 6.966 16.82 1.393 2.251 1.572 5.031.499 7.45l-3.295 7.421 6.91 6.9 7.427-3.291c2.41-1.079 5.192-.889 7.442.491 5.22 3.22 10.868 5.561 16.808 6.979 2.57.611 4.669 2.44 5.62 4.911l2.923 7.57h9.758l2.909-7.57c.951-2.46 3.05-4.3 5.625-4.911 5.935-1.41 11.598-3.76 16.818-6.97 2.241-1.39 5.027-1.58 7.437-.501l7.432 3.291 6.9-6.9-3.3-7.43c-1.073-2.41-.88-5.19.499-7.441 3.21-5.219 5.559-10.879 6.971-16.82.612-2.559 2.447-4.659 4.909-5.61zm10.874-22.72-8.91-3.431c-1.422-4.72-3.309-9.279-5.653-13.618l3.883-8.732c1.351-3.03.692-6.569-1.652-8.91l-14.671-14.668c-2.335-2.339-5.879-2.994-8.906-1.652l-8.731 3.878c-4.349-2.335-8.901-4.227-13.622-5.648l-3.426-8.91c-1.191-3.087-4.161-5.13-7.475-5.13h-20.748c-3.309 0-6.279 2.043-7.46 5.13l-3.427 8.91c-4.726 1.422-9.282 3.314-13.622 5.648l-8.741-3.878c-3.022-1.346-6.561-.687-8.901 1.652l-14.671 14.68c-2.339 2.34-2.999 5.869-1.657 8.899l3.878 8.732c-2.339 4.348-4.232 8.899-5.653 13.618l-8.91 3.431c-3.088 1.19-5.117 4.159-5.117 7.471v20.749c0 3.309 2.029 6.27 5.117 7.461l8.91 3.429c1.421 4.72 3.314 9.28 5.653 13.63l-3.878 8.73c-1.342 3.021-.682 6.561 1.657 8.901l14.671 14.67c2.339 2.339 5.879 2.998 8.901 1.659l8.741-3.88c4.34 2.34 8.896 4.219 13.622 5.641l3.427 8.919c1.181 3.08 4.151 5.12 7.46 5.12h20.748c3.314 0 6.284-2.041 7.475-5.12l3.426-8.91c4.721-1.42 9.273-3.31 13.622-5.65l8.731 3.88c3.026 1.34 6.571.68 8.906-1.659l14.671-14.67c2.344-2.34 3.003-5.88 1.652-8.901l-3.883-8.739c2.344-4.341 4.232-8.901 5.653-13.621l8.91-3.429c3.087-1.191 5.13-4.152 5.13-7.461v-20.75c0-3.312-2.043-6.281-5.13-7.471zm-10.874 413.18h-37.537v-104.189c0-.162.16-.311.311-.311h36.906c.16 0 .32.149.32.311zm-26.019-296.48h14.502l7.31 31.729-8.209 17.851c-.49 1.049-.73 2.189-.73 3.339v123.061h-11.24v-123.061c0-1.15-.25-2.29-.73-3.339l-8.213-17.851zm28.872 176.289c7.479 1.48 13.151 8.09 13.151 16.002v112.189c0 4.42-3.582 8-8.002 8h-53.541c-4.42 0-7.997-3.58-7.997-8v-112.189c0-7.911 5.658-14.521 13.151-16.002v-121.608l-8.623-18.741c-.73-1.609-.918-3.42-.518-5.139l9.338-40.601c.838-3.63 4.072-6.2 7.8-6.2h27.239c3.723 0 6.961 2.57 7.79 6.209l9.353 40.592c.4 1.719.207 3.53-.532 5.139l-8.609 18.741zm-87.76 111.371v-24.9c0-2.861-1.53-5.499-4.001-6.93l-18.747-10.821c-1.233-.71-2.612-1.07-4.001-1.07-1.384 0-2.763.36-4.001 1.07l-18.738 10.821c-2.471 1.43-4.001 4.069-4.001 6.93v24.9c-4.311-5.7-6.75-12.74-6.75-20.21 0-13.53 8.058-25.651 20.527-30.9 2.975-1.241 4.9-4.15 4.9-7.371v-153.049c0-3.22-1.925-6.13-4.9-7.371-12.468-5.239-20.527-17.37-20.527-30.9 0-7.469 2.438-14.509 6.75-20.209v24.899c0 2.861 1.53 5.501 4.001 6.93l18.738 10.82c2.48 1.431 5.53 1.431 8.002 0l18.747-10.82c2.471-1.429 4.001-4.069 4.001-6.93v-24.899c4.311 5.7 6.75 12.74 6.75 20.209 0 13.53-8.063 25.661-20.531 30.9-2.97 1.241-4.9 4.151-4.9 7.371v153.049c0 3.222 1.93 6.13 4.9 7.371 12.469 5.249 20.531 17.369 20.531 30.9 0 7.47-2.438 14.51-6.75 20.21zm-141.239 8.82v-47.01c9.258 13.88 15.829 29.78 18.917 47.01zm-207.498-47.01v47.01h-18.922c3.088-17.23 9.649-33.13 18.922-47.01zm103.749-55.37h.028c22.122.01 42.969 5.75 61.062 15.9v27.289h-122.181v-27.289c18.089-10.151 38.94-15.891 61.058-15.9zm-56.935-59.279h113.864c-6.943 25.198-29.992 43.268-56.902 43.279-.009 0-.019 0-.028 0-.014 0-.023 0-.033 0-26.909-.011-49.958-18.081-56.901-43.279zm-15.405-19.391h144.68c.918 0 1.685.78 1.685 1.69 0 .919-.767 1.699-1.685 1.699h-144.68c-.923 0-1.69-.78-1.69-1.699 0-.91.767-1.69 1.69-1.69zm44-69.35 2.207 17.04c1.28 9.829 9.71 17.239 19.632 17.239h13.001c9.917 0 18.347-7.41 19.628-17.239l2.207-17.04c20.103 10.16 33.311 30.431 34.214 53.349h-125.099c.899-22.918 14.106-43.189 34.21-53.349zm14.949-13.82c-.212.259-.532.649-.363 1.909l3.493 26.892c.249 1.908 1.831 3.298 3.761 3.298h13.001c1.93 0 3.507-1.39 3.756-3.298l3.493-26.892c.169-1.259-.15-1.649-.363-1.909-1.247-1.52-5.497-3.48-13.386-4.091-7.895.611-12.145 2.571-13.392 4.091zm96.91 43.74h-9.282c-2.226-6.409-5.272-12.47-9.018-18.03h18.3zm34.04-36.99v36.99h-18.041v-36.99zm-29.809 257.47v-66.411c-3.37-3.329-6.933-6.468-10.661-9.399v24.62c0 4.42-3.582 8-8.002 8h-138.18c-4.42 0-7.997-3.58-7.997-8v-24.62c-3.732 2.931-7.291 6.07-10.661 9.399v66.411zm106.427-86.04v-118.441h-116.208c.348 2.82.57 5.681.621 8.57 6.679 2.532 11.438 9 11.438 16.552 0 9.399-7.362 17.079-16.611 17.64-4.42 20.83-17.378 38.24-34.878 48.709 18.639 5.301 36.069 14.431 51.187 26.971h104.451zm-21.181-152.47h-39.439v18.03h53.112c-5.911-4.89-10.58-11.071-13.673-18.03zm69.309 166.21v-143.051c15.613-8.669 25.431-25.119 25.431-43.27 0-18.748-10.397-35.679-27.14-44.158-2.481-1.261-5.427-1.14-7.8.309-2.367 1.46-3.808 4.039-3.808 6.819v37.102l-10.75 6.2-10.741-6.2v-37.102c0-2.78-1.44-5.36-3.813-6.819-2.368-1.449-5.319-1.57-7.799-.309-16.737 8.48-27.14 25.41-27.14 44.158 0 1.38.061 2.75.184 4.111h-35.372v-10.96c0-4.42-3.591-8-7.997-8h-34.04c-4.415 0-8.002 3.58-8.002 8v10.96h-32.609c-6.373-5.4-13.664-9.82-21.689-13.021-.64-2.489-1.793-4.79-3.464-6.829-4.749-5.79-13.226-9.14-25.22-9.96-.358-.02-.72-.02-1.078 0-11.989.82-20.47 4.17-25.22 9.96-1.671 2.039-2.819 4.339-3.459 6.829-29.334 11.701-48.829 39.751-49.37 71.62-6.679 2.532-11.443 9-11.443 16.552 0 9.399 7.362 17.079 16.611 17.64 4.429 20.83 17.382 38.24 34.878 48.709-20.536 5.841-39.627 16.342-55.757 30.931-25.7 23.24-41.868 54.929-45.539 89.229-.249 2.262.48 4.51 2 6.202 1.52 1.69 3.681 2.65 5.949 2.65h263.779c2.269 0 4.429-.96 5.954-2.65 1.515-1.692 2.245-3.94 1.996-6.202-3.069-28.699-14.897-55.56-33.72-77.189h84.39c-13.457 9.09-21.76 24.331-21.76 41.01 0 18.76 10.402 35.68 27.14 44.169 2.481 1.25 5.432 1.131 7.799-.32 2.372-1.46 3.813-4.039 3.813-6.819v-37.1l10.741-6.2 10.75 6.2v37.1c0 2.78 1.44 5.359 3.808 6.819 1.28.78 2.73 1.181 4.189 1.181 1.233 0 2.471-.29 3.61-.861 16.742-8.489 27.14-25.41 27.14-44.169-.001-18.152-9.819-34.602-25.432-43.271z"/></g></svg>