<svg id="Layer_3" height="512" viewBox="0 0 64 64" width="512" xmlns="http://www.w3.org/2000/svg" data-name="Layer 3"><path d="m36 14h4v4h-4z" fill="#939393"/><path d="m6 14h4v4h-4z" fill="#939393"/><path d="m58.581 32.86-2.581-.86h-20v-10h13.571l-1.095-1.7a5 5 0 0 0 -4.206-2.3h-12.27v32h30v-12.4a5 5 0 0 0 -3.419-4.74z" fill="#f3a845"/><path d="m2 18h30v32h-30z" fill="#ccc"/><path d="m2 46h60v4h-60z" fill="#686868"/><path d="m2 18v24h21a5 5 0 0 0 5-5v-19z" fill="#f2f2f2"/><rect fill="#fff" height="15" rx="3" width="18" x="7" y="25"/><circle cx="11" cy="50" fill="#474747" r="5"/><circle cx="47" cy="50" fill="#474747" r="5"/><circle cx="47" cy="50" fill="#686868" r="2"/><circle cx="11" cy="50" fill="#686868" r="2"/><path d="m49.571 22h-13.571v10h20z" fill="#bce4f8"/><path d="m56 41h6v5h-6z" fill="#eecc61"/><path d="m40 22v10h16l-6.429-10z" fill="#e4f5fd"/><path d="m2 10h42v4h-42z" fill="#686868"/><path d="m18 24-5 9h3l-1 7 6-8-3-1z" fill="#f3a845"/><path d="m2 12h38a2 2 0 0 0 2-2h-40z" fill="#939393"/><path d="m58.9 31.912-2.247-.749-7.336-11.408a5.978 5.978 0 0 0 -5.046-2.755h-3.271v-2h3a1 1 0 0 0 1-1v-4a1 1 0 0 0 -1-1h-42a1 1 0 0 0 -1 1v4a1 1 0 0 0 1 1h3v2h-3a1 1 0 0 0 -1 1v32a1 1 0 0 0 1 1h3.09a5.993 5.993 0 0 0 11.82 0h24.18a5.993 5.993 0 0 0 11.82 0h9.09a1 1 0 0 0 1-1v-12.4a5.99 5.99 0 0 0 -4.1-5.688zm-4.731-.912h-13.169v-8h8v-.041zm-17.169 0v-8h2v8zm10.636-10.163.1.163h-11.736a1 1 0 0 0 -1 1v10a1 1 0 0 0 1 1h19.837l2.428.809a4 4 0 0 1 2.735 3.791v2.4h-5a1 1 0 0 0 -1 1v4h-4.69a5.978 5.978 0 0 0 -6.62 0h-10.69v-26h11.271a3.986 3.986 0 0 1 3.365 1.837zm13.364 21.163v3h-4v-3zm-44.812 5h14.812v2h-14.09a5.966 5.966 0 0 0 -.722-2zm16.812 0h8.812a5.966 5.966 0 0 0 -.722 2h-8.09zm2-32v2h-24v-2zm4 2h-2v-2h2zm-36-6h40v2h-40zm4 4h2v2h-2zm24 4v26h-16.69a5.978 5.978 0 0 0 -6.62 0h-4.69v-26zm-28 28h2.812a5.966 5.966 0 0 0 -.722 2h-2.09zm8 7a4 4 0 1 1 4-4 4 4 0 0 1 -4 4zm36 0a4 4 0 1 1 4-4 4 4 0 0 1 -4 4zm5.91-5a5.966 5.966 0 0 0 -.722-2h8.812v2z"/><path d="m35 35h5v2h-5z"/><path d="m47 47a3 3 0 1 0 3 3 3 3 0 0 0 -3-3zm0 4a1 1 0 1 1 1-1 1 1 0 0 1 -1 1z"/><path d="m11 47a3 3 0 1 0 3 3 3 3 0 0 0 -3-3zm0 4a1 1 0 1 1 1-1 1 1 0 0 1 -1 1z"/><path d="m7 23h2v-2h-3a1 1 0 0 0 -1 1v3h2z"/><path d="m27 25h2v-3a1 1 0 0 0 -1-1h-3v2h2z"/><path d="m6 43h3v-2h-2v-2h-2v3a1 1 0 0 0 1 1z"/><path d="m29 42v-3h-2v2h-2v2h3a1 1 0 0 0 1-1z"/><path d="m27 27h2v2h-2z"/><path d="m13 34h1.847l-.837 5.858a1 1 0 0 0 .607 1.066.987.987 0 0 0 .383.076 1 1 0 0 0 .8-.4l6-8a1 1 0 0 0 -.484-1.549l-2.316-.772v-6.279a1 1 0 0 0 -1.874-.486l-5 9a1 1 0 0 0 .874 1.486zm4-6.141v3.141a1 1 0 0 0 .684.949l1.683.561-2.825 3.767.448-3.135a1 1 0 0 0 -.99-1.142h-1.3z"/></svg>