<svg id="Layer_3" height="512" viewBox="0 0 64 64" width="512" xmlns="http://www.w3.org/2000/svg" data-name="Layer 3"><path d="m20 39-8.982 2a6.308 6.308 0 0 0 -4.7 5.084l-4.318 15.916h45l-3.319-15.916a6.308 6.308 0 0 0 -4.699-5.084l-8.982-2z" fill="#9b6621"/><path d="m43.681 46.084a6.308 6.308 0 0 0 -4.699-5.084l-8.982-2h-10l-8.982 2a6.282 6.282 0 0 0 -1.807.772 6.288 6.288 0 0 0 -.892 2.312 12.613 12.613 0 0 0 12.173 15.916h26.091z" fill="#fbb03b"/><path d="m17 28h-1.5a2.5 2.5 0 0 1 -2.5-2.5 2.5 2.5 0 0 1 2.5-2.5h1.5" fill="#eaa496"/><path d="m33 28h1.5a2.5 2.5 0 0 0 2.5-2.5 2.5 2.5 0 0 0 -2.5-2.5h-1.5" fill="#eaa496"/><path d="m16 20a7 7 0 0 1 6.991-7h3.509c4.4.03 7.5 3.149 7.5 6.992v.008z" fill="#fbb03b"/><path d="m23.5 13h-.509a6.992 6.992 0 0 0 -6.912 6h17.842c-.484-3.372-3.407-5.972-7.421-6z" fill="#f9d023"/><path d="m15 20h20v3h-20z" fill="#f9d023"/><g fill="#fbb03b"><path d="m26 14.999-2 .001-1-4h4z"/><path d="m17.5 12.379h2v4.243h-2z" transform="matrix(.707 -.707 .707 .707 -4.835 17.328)"/><path d="m29.379 13.5h4.243v2h-4.243z" transform="matrix(.707 -.707 .707 .707 -1.027 26.521)"/></g><path d="m20 34.244v4.52a5 5 0 0 0 5 5 5 5 0 0 0 5-5v-4.521z" fill="#eeb8ab"/><path d="m33 23v5a8 8 0 0 1 -8 8 8 8 0 0 1 -8-8v-5z" fill="#eeb8ab"/><path d="m25 36a8 8 0 0 0 8-8v-4h-16v4a8 8 0 0 0 8 8z" fill="#ffe1d3"/><path d="m16 62v-5l5-2h8l5 2v5z" fill="#114996"/><path d="m62 38h-10v4a5 5 0 0 0 5 5 5 5 0 0 0 5-5z" fill="#f9d023"/><path d="m52 32h2v6h-2z" fill="#808080"/><path d="m60 32h2v6h-2z" fill="#4d4d4d"/><path d="m56 32h2v6h-2z" fill="#4d4d4d"/><path d="m57 63a7 7 0 0 1 -1-13.929v-2.071h2v3a1 1 0 0 1 -1 1 5 5 0 0 0 0 10z" fill="#808080"/><path d="m53.999 2-13.999 10 11 6-5 11 16-13.001-11.001-3.999z" fill="#f9d023"/><path d="m20 38.764a5 5 0 0 0 5 5 5 5 0 0 0 5-5v-1.764h-10z" fill="#ffe1d3"/><path d="m16 59.176a12.577 12.577 0 0 0 4.492.824h13.508v-3l-5-2h-8l-5 2z" fill="#1861b7"/><path d="m56 17-10 12 16-13.001-11.001-3.999 3-10-7.999 10z" fill="#fbb03b"/><path d="m57 47a5 5 0 0 0 5-5v-4h-5" fill="#fbb03b"/><path d="m56 32h1v6h-1z" fill="#808080"/><path d="m38 40.78v21.22h-4v-5l-5-2h-8l-5 2v5h-4v-21.22l4-.89v11.11h18v-11.11z" fill="#e5c47a"/><path d="m38 60v-19.219l-4-.89v11.109h-18v-11.109l-4 .89v15.91a12.5 12.5 0 0 0 4 2.485v-2.176l5-2h8l5 2v3z" fill="#ffdb80"/><path d="m62 37v-5h-2v5h-2v-5h-2v5h-2v-5h-2v5a1 1 0 0 0 -1 1v4a6 6 0 0 0 5 5.909v1.163a7 7 0 0 0 1 13.928v-2a5 5 0 0 1 0-10 1 1 0 0 0 1-1v-2.092a6 6 0 0 0 5-5.908v-4a1 1 0 0 0 -1-1zm-1 5a4 4 0 0 1 -8 0v-3h8z"/><path d="m62.986 15.833a1 1 0 0 0 -.644-.773l-10.113-3.677 2.729-9.1a1 1 0 0 0 -1.54-1.1l-14 10a1 1 0 0 0 .1 1.691l10.184 5.555-4.612 10.157a1 1 0 0 0 1.54 1.19l16-13a1 1 0 0 0 .356-.943zm-14.316 9.709 3.24-7.128a1 1 0 0 0 -.431-1.292l-9.6-5.236 10.321-7.373-2.16 7.2a1 1 0 0 0 .616 1.227l9.344 3.396z"/><path d="m10.776 40.03a7.256 7.256 0 0 0 -5.422 5.792l-4.319 15.916a1 1 0 0 0 .965 1.262h45a1 1 0 0 0 .979-1.2l-3.312-15.881a7.31 7.31 0 0 0 -5.467-5.895l-8.2-1.824v-3.51a8.974 8.974 0 0 0 2.94-5.69h.56a3.492 3.492 0 0 0 1.5-6.649v-2.351a1 1 0 0 0 -1-1h-.066a7.644 7.644 0 0 0 -2.1-4.416l.877-.877-1.414-1.414-1.031 1.027a8.9 8.9 0 0 0 -3.509-1.22l.213-.853a1 1 0 0 0 -.97-1.247h-4a1 1 0 0 0 -.97 1.243l.2.8a7.923 7.923 0 0 0 -3.543 1.232l-.979-.978-1.414 1.414.855.855a7.967 7.967 0 0 0 -2.08 4.434h-.069a1 1 0 0 0 -1 1v2.351a3.492 3.492 0 0 0 1.5 6.649h.559a8.978 8.978 0 0 0 2.941 5.688v3.512zm14.224 4.734a6 6 0 0 0 5.817-4.558l2.183.486v9.308h-16v-9.308l2.183-.486a6 6 0 0 0 5.817 4.558zm12 16.236h-2v-4a1 1 0 0 0 -.628-.929l-5-2a1.012 1.012 0 0 0 -.372-.071h-8a1.012 1.012 0 0 0 -.372.071l-5 2a1 1 0 0 0 -.628.929v4h-2v-19.417l2-.445v9.862a1 1 0 0 0 1 1h18a1 1 0 0 0 1-1v-9.862l2 .445zm-4 0h-16v-3.323l4.192-1.677h7.616l4.192 1.677zm-25.694-14.751a5.287 5.287 0 0 1 3.694-4.195v18.946h-7.693zm35.4.039 3.064 14.712h-6.77v-18.945a5.315 5.315 0 0 1 3.7 4.233zm-26.706-24.288v-1h18v1zm18.5 5h-.5v-3h.5a1.5 1.5 0 0 1 0 3zm-8.781-15-.5 2h-.438l-.5-2zm-7.158 3.975.732.732 1.414-1.414-.568-.568a5.926 5.926 0 0 1 2.584-.711l.307 1.229a1 1 0 0 0 .97.757h2a1 1 0 0 0 .97-.758l.3-1.2a7.043 7.043 0 0 1 2.52.75l-.5.5 1.414 1.414.7-.7a5.692 5.692 0 0 1 1.505 2.994h-15.819a5.969 5.969 0 0 1 1.471-3.025zm-4.561 9.525a1.5 1.5 0 0 1 1.5-1.5h.5v3h-.5a1.5 1.5 0 0 1 -1.5-1.5zm4 2.5v-4h14v4a7 7 0 0 1 -14 0zm7 9a8.934 8.934 0 0 0 4-.951v2.715a4 4 0 0 1 -8 0v-2.714a8.934 8.934 0 0 0 4 .95z"/></svg>