<svg height="512" viewBox="0 0 64 64" width="512" xmlns="http://www.w3.org/2000/svg"><g id="Filled_outline" data-name="Filled outline"><rect fill="#f9bb4b" height="54" rx="2" width="32" x="5" y="3"/><circle cx="21" cy="35" fill="#fcf05a" r="6"/><path d="m9 11h24v8h-24z" fill="#f4f4e6"/><path d="m8 6h2v2h-2z" fill="#e97424"/><path d="m12 6h2v2h-2z" fill="#e97424"/><circle cx="11" cy="51" fill="#dd3e46" r="2"/><circle cx="19" cy="51" fill="#dd3e46" r="2"/><path d="m19 40.651a5.905 5.905 0 0 0 4 0v-11.3a5.905 5.905 0 0 0 -4 0z" fill="#e97424"/><path d="m25 49h4v8h-4z" fill="#394d5c"/><path d="m29 49h4v8h-4z" fill="#da1c4b"/><path d="m39 62h-5a4 4 0 0 1 -4-4v-1h2v1a2 2 0 0 0 2 2h5z" fill="#b11e48"/><path d="m46 46h-2l-1-7v-19h4v19z" fill="#394d5c"/><path d="m41 16h8v4h-8z" fill="#7d8d9c"/><path d="m47 16h-4l1-8h2z" fill="#394d5c"/><path d="m56 53h-2l-1-7v-19h4v19z" fill="#da1c4b"/><path d="m51 23h8v4h-8z" fill="#b11e48"/><path d="m57 23h-4l1-8h2z" fill="#da1c4b"/><path d="m21 3h12v4h-12z" fill="#fcf05a"/><path d="m9 20h24a1 1 0 0 0 1-1v-8a1 1 0 0 0 -1-1h-24a1 1 0 0 0 -1 1v8a1 1 0 0 0 1 1zm1-8h22v6h-22z"/><path d="m8 6h2v2h-2z"/><path d="m12 6h2v2h-2z"/><path d="m20 23h2v3h-2z"/><path d="m9 34h3v2h-3z"/><path d="m30 34h3v2h-3z"/><path d="m20 44h2v3h-2z"/><path d="m11 48a3 3 0 1 0 3 3 3 3 0 0 0 -3-3zm0 4a1 1 0 1 1 1-1 1 1 0 0 1 -1 1z"/><path d="m19 48a3 3 0 1 0 3 3 3 3 0 0 0 -3-3zm0 4a1 1 0 1 1 1-1 1 1 0 0 1 -1 1z"/><path d="m28 35a7 7 0 1 0 -7 7 7.009 7.009 0 0 0 7-7zm-10 3.974a4.948 4.948 0 0 1 0-7.948zm4 .925a5 5 0 0 1 -2 0v-9.799a5 5 0 0 1 2 0zm2-.925v-7.948a4.948 4.948 0 0 1 0 7.948z"/><path d="m14 24.586h2v2.828h-2z" transform="matrix(.707 -.707 .707 .707 -13.991 18.222)"/><path d="m10.5 28.197h2v3.606h-2z" transform="matrix(.555 -.832 .832 .555 -19.841 22.928)"/><path d="m25.586 25h2.828v2h-2.828z" transform="matrix(.707 -.707 .707 .707 -10.477 26.707)"/><path d="m28.697 29h3.606v2h-3.606z" transform="matrix(.832 -.555 .555 .832 -11.519 21.957)"/><path d="m13.586 42h2.828v2h-2.828z" transform="matrix(.707 -.707 .707 .707 -26.012 23.201)"/><path d="m9.697 38h3.606v2h-3.606z" transform="matrix(.832 -.555 .555 .832 -19.702 12.929)"/><path d="m26 41.586h2v2.828h-2z" transform="matrix(.707 -.707 .707 .707 -22.497 31.686)"/><path d="m29.5 37.197h2v3.606h-2z" transform="matrix(.555 -.832 .832 .555 -18.868 42.744)"/><path d="m8 22h4v2h-4z"/><path d="m30 22h4v2h-4z"/><path d="m59 22h-1.117l-.891-7.124a1 1 0 0 0 -.992-.876v-4h-2v4a1 1 0 0 0 -.992.876l-.891 7.124h-1.117a1 1 0 0 0 -1 1v4a1 1 0 0 0 1 1h1v18a.969.969 0 0 0 .01.142l1 7a1 1 0 0 0 .99.858v5a1 1 0 0 1 -1 1h-8.026a4.948 4.948 0 0 0 1.026-3v-10a1 1 0 0 0 .99-.858l1-7a.969.969 0 0 0 .01-.142v-18h1a1 1 0 0 0 1-1v-4a1 1 0 0 0 -1-1h-1.117l-.891-7.124a1 1 0 0 0 -.992-.876v-4h-2v4a1 1 0 0 0 -.992.876l-.891 7.124h-1.117a1 1 0 0 0 -1 1v4a1 1 0 0 0 1 1h1v18a.969.969 0 0 0 .01.142l1 7a1 1 0 0 0 .99.858v10a3 3 0 0 1 -3 3h-7a2 2 0 0 1 -2-2h3a3 3 0 0 0 3-3v-50a3 3 0 0 0 -3-3h-28a3 3 0 0 0 -3 3v50a3 3 0 0 0 3 3h19v1a3 3 0 0 0 3 3h24a3 3 0 0 0 3-3v-5a1 1 0 0 0 .99-.858l1-7a.969.969 0 0 0 .01-.142v-18h1a1 1 0 0 0 1-1v-4a1 1 0 0 0 -1-1zm-27 34h-2v-6h2zm-10-52h10v2h-10zm3 44a1 1 0 0 0 -1 1v7h-17a1 1 0 0 1 -1-1v-50a1 1 0 0 1 1-1h13v3a1 1 0 0 0 1 1h12a1 1 0 0 0 1-1v-3h1a1 1 0 0 1 1 1v50a1 1 0 0 1 -1 1h-1v-7a1 1 0 0 0 -1-1zm1 8v-6h2v6zm3 4a1 1 0 0 1 -1-1v-1h2a3.959 3.959 0 0 0 .556 2zm15.883-51h.234l.75 6h-1.734zm-2.883 10v-2h6v2zm2 19.929v-17.929h2v17.929l-.867 6.071h-.266zm10.883-22.929h.234l.75 6h-1.734zm1.117 29.929-.867 6.071h-.266l-.867-6.071v-17.929h2zm2-19.929h-6v-2h6z"/></g></svg>