<svg id="Layer_1" enable-background="new 0 0 256 256" height="512" viewBox="0 0 256 256" width="512" xmlns="http://www.w3.org/2000/svg"><g><g><path d="m228.221 135.888c-9.09 92.48-111.91 123.707-171.65 70.717l8.31-9.66c51.14 45.42 140.65 21.424 150.57-61.057z" fill="#72c1e8"/><path d="m233.681 124.715v6c0 2.86-2.31 5.18-5.17 5.18 0 0-13 .01-13.06-.01-2.8-.05-5.07-2.35-5.07-5.17v-6c.31.03.63.05.94.05h21.43c.31 0 .63-.02.93-.05z" fill="#f2e1d6"/><path d="m230.487 64.828v19.067h9.187v-19.067c0-2.537-2.061-4.598-4.598-4.598-2.569-.001-4.589 2.102-4.589 4.598z" fill="#afafaf"/><path d="m204.397 64.828v19.067h9.187v-19.067c0-2.537-2.051-4.598-4.588-4.598-2.536-.001-4.599 2.062-4.599 4.598z" fill="#afafaf"/><path d="m245.771 94.645v17.1c0 6.83-5.3 12.51-12.09 12.97-.3.03-.62.05-.93.05h-21.43c-.31 0-.63-.02-.94-.05-6.79-.46-12.09-6.14-12.09-12.97v-17.1z" fill="#72c1e8"/><path d="m225.147 118.264c-1.38 0-2.498-1.117-2.5-2.497-.002-1.381 1.116-2.501 2.497-2.503l7.819-.024c.613-.043 1.171-.568 1.291-1.258l.021-8.34c0-1.381 1.119-2.5 2.5-2.5s2.5 1.119 2.5 2.5l-.053 8.923c-.404 3.074-2.92 5.456-5.981 5.666l-8.092.033s-.001 0-.002 0zm-10.007-.001c-.002 0-.003 0-.005 0-4.003-.009-4.192-.023-4.33-.034-1.376-.107-2.405-1.311-2.297-2.688.107-1.376 1.31-2.417 2.688-2.297h.001c.041 0 .621.012 3.948.019 1.381.003 2.498 1.125 2.495 2.505-.003 1.378-1.122 2.495-2.5 2.495z" fill="#c5e5ff"/><path d="m192 89.27c0 2.969 2.407 5.375 5.375 5.375h49.32c2.969 0 5.375-2.407 5.375-5.375 0-2.969-2.407-5.375-5.375-5.375h-49.32c-2.968 0-5.375 2.407-5.375 5.375z" fill="#f2e1d6"/><path d="m27.779 120.124c9.09-92.478 111.909-123.712 171.65-70.721l-8.31 9.66c-51.141-45.421-140.65-21.418-150.57 61.061z" fill="#72c1e8"/><path d="m22.319 131.294v-6c0-2.86 2.31-5.18 5.17-5.18.064 0 12.998-.005 13.06.01 2.8.05 5.07 2.35 5.07 5.17v6c-.31-.04-.63-.05-.94-.05h-21.43c-.32.001-.63.01-.93.05z" fill="#f2e1d6"/><path d="m25.513 191.181v-19.067h-9.187v19.067c0 2.537 2.061 4.598 4.598 4.598 2.569 0 4.589-2.102 4.589-4.598z" fill="#afafaf"/><path d="m51.603 191.181v-19.067h-9.187v19.067c0 2.537 2.051 4.598 4.588 4.598 2.536 0 4.599-2.062 4.599-4.598z" fill="#afafaf"/><path d="m10.224 161.367v-17.099c0-6.839 5.303-12.51 12.091-12.974.307-.029.624-.048.931-.048h21.437c.307 0 .624.019.931.048 6.794.464 12.091 6.141 12.091 12.974v17.099z" fill="#72c1e8"/><path d="m19.224 154.867c-1.381 0-2.5-1.119-2.5-2.5-.003-2.831-.029-8.3.054-8.929.404-3.068 2.919-5.45 5.98-5.66.111-.009.312-.024 8.093-.033h.003c1.379 0 2.499 1.117 2.5 2.497.001 1.381-1.116 2.501-2.497 2.503-5.373.006-7.57.018-7.82.024-.614.044-1.172.569-1.292 1.258-.036 1.039-.022 7.311-.021 8.34 0 1.381-1.119 2.5-2.5 2.5zm25.581-12.102c-.014-.009-.584-.012-3.95-.019-1.38-.003-2.498-1.125-2.495-2.505.003-1.379 1.122-2.495 2.5-2.495h.005c4.002.009 4.191.023 4.33.034 1.376.107 2.405 1.311 2.297 2.688-.11 1.403-1.353 2.414-2.687 2.297z" fill="#c5e5ff"/><path d="m64 166.738c0-2.969-2.407-5.375-5.375-5.375h-49.32c-2.969 0-5.375 2.407-5.375 5.375 0 2.969 2.407 5.375 5.375 5.375h49.32c2.968.001 5.375-2.406 5.375-5.375z" fill="#f2e1d6"/><path d="m246.695 81.395h-4.522v-16.567c0-3.914-3.185-7.099-7.099-7.099-3.908 0-7.088 3.185-7.088 7.099v16.566h-11.902v-16.566c0-3.914-3.18-7.099-7.088-7.099-3.914 0-7.099 3.185-7.099 7.099v16.566h-4.522c-4.342 0-7.875 3.533-7.875 7.876 0 3.802 2.708 6.982 6.295 7.715v14.755c0 7.397 5.199 13.58 12.086 15.121v3.852c0 3.182 1.982 5.936 4.772 7.089-11.129 79.422-97.339 100.591-146.112 57.272-.99-.881-2.65-.78-3.53.21-.937 1.064-.812 2.631.21 3.529l.01.011c51.904 46.078 142.908 22.728 154.418-60.432l7.782.001c-2.62 21.78-10.56 40.67-23.6 56.141-.928 1.098-.714 2.665.3 3.52 1.01.86 2.66.71 3.52-.3 13.024-15.438 22.078-35.417 24.83-59.627 3.276-.874 5.7-3.862 5.7-7.414v-3.855c6.903-1.554 12.095-7.712 12.095-15.117v-14.755c3.587-.733 6.295-3.914 6.295-7.715-.001-4.343-3.534-7.876-7.876-7.876zm-13.709-16.567c0-1.157.937-2.099 2.088-2.099 1.157 0 2.099.941 2.099 2.099v16.566h-4.187zm-26.088 0c0-1.157.941-2.099 2.099-2.099 1.151 0 2.088.941 2.088 2.099v16.566h-4.187zm24.283 65.886c0 1.478-1.197 2.68-2.67 2.68-.411 0-13.426-.01-13.015-.01-1.442-.025-2.615-1.223-2.615-2.67v-3.45h18.3zm1.573-8.451c-30.31 0-18.754-.001-21.484-.001-5.67-.017-10.475-4.637-10.475-10.52v-14.596h42.48v14.596c0 5.886-4.821 10.521-10.521 10.521zm13.941-30.117c-57.847-.005-48.084 0-49.32 0-1.585 0-2.875-1.29-2.875-2.875 0-1.586 1.29-2.876 2.875-2.876h49.32c1.585 0 2.875 1.29 2.875 2.876 0 1.584-1.29 2.875-2.875 2.875z"/><path d="m198.857 205.245c.979-.96 1.01-2.551.05-3.53-.93-.96-2.58-.99-3.54-.061-.99.961-1.01 2.551-.05 3.54 1.009 1.032 2.589.983 3.54.051z"/><path d="m191.157 212.005c1.07-.86 1.26-2.43.4-3.51-.83-1.051-2.46-1.24-3.511-.41-37.091 29.425-92.317 29.737-129.629-3.351-1-.88-2.65-.779-3.53.21-.91 1.03-.82 2.61.21 3.53 39.124 34.737 97.074 34.448 136.06 3.531z"/><path d="m13.827 174.613v16.567c0 3.914 3.184 7.099 7.098 7.099 3.909 0 7.088-3.185 7.088-7.099v-16.567h11.902v16.567c0 3.914 3.18 7.099 7.088 7.099 3.914 0 7.098-3.185 7.098-7.099v-16.567h4.522c4.342 0 7.875-3.532 7.875-7.875 0-3.802-2.707-6.982-6.295-7.715v-14.755c0-7.427-5.227-13.587-12.086-15.121v-3.853c0-3.18-1.981-5.934-4.769-7.088 11.119-79.47 97.329-100.574 146.112-57.271.98.88 2.64.78 3.521-.21.92-1.03.83-2.609-.19-3.52-.01-.011-.01-.011-.01-.011-52.277-46.412-143.033-22.171-154.428 60.42h-7.792c2.63-21.78 10.57-40.67 23.6-56.14.89-1.05.76-2.63-.3-3.52-1.01-.86-2.67-.721-3.52.3-14.48 17.188-22.347 37.856-24.819 59.626-3.278.873-5.703 3.861-5.703 7.414v3.856c-6.898 1.552-12.094 7.707-12.094 15.117v14.755c-3.588.733-6.295 3.914-6.295 7.715 0 4.343 3.533 7.875 7.875 7.875h4.522zm9.187 16.568c0 1.157-.937 2.099-2.088 2.099-1.157 0-2.098-.941-2.098-2.099v-16.567h4.187v16.567zm26.088 0c0 1.157-.941 2.099-2.098 2.099-1.151 0-2.088-.941-2.088-2.099v-16.567h4.187v16.567zm-24.283-65.887c0-1.478 1.198-2.68 2.67-2.68 0 0 13.018.011 13.024.011 1.438.03 2.607 1.226 2.607 2.669v3.45h-18.3v-3.45zm-2.274 8.489c.649-.06-.913-.037 22.139-.037 5.646 0 10.521 4.579 10.521 10.521v14.596h-42.48v-14.596c-.001-5.57 4.328-10.108 9.82-10.484zm-16.115 32.955c0-1.585 1.29-2.875 2.875-2.875h.891c.01 0 .019.003.029.003 52.041 0 48.048-.003 48.4-.003 1.585 0 2.875 1.29 2.875 2.875s-1.29 2.875-2.875 2.875c-41.963 0-.611 0-49.32 0-1.586 0-2.875-1.29-2.875-2.875z"/><path d="m64.622 47.524c.83 1.04 2.46 1.23 3.51.4 37.453-29.732 92.635-29.465 129.641 3.35 1.074.935 2.626.799 3.52-.21.926-1.028.823-2.612-.2-3.529-39.267-34.831-97.164-34.383-136.07-3.53-1.081.86-1.26 2.43-.401 3.519z"/><path d="m57.332 50.765c-.01 0-.01 0-.01.01-.987.946-1 2.54-.05 3.53 1.005 1.006 2.573.975 3.53.061 0-.011 0-.011.01-.011.99-.96 1.01-2.55.05-3.54-.929-.961-2.579-.98-3.53-.05z"/></g><g><path d="m129.935 116.077 14.215-49.464c1.508-5.247-5.513-8.547-8.575-4.027l-46.121 68.102c-2.158 3.187.133 7.479 3.983 7.479l30.868-.001-14.212 49.47c-1.507 5.247 5.514 8.546 8.576 4.026l46.122-68.107c2.158-3.187-.133-7.479-3.982-7.479z" fill="#f0c020"/><path d="m148.162 143.654c-.781 1.132-.478 2.713.67 3.471 1.1.75 2.72.43 3.47-.67l14.561-21.5c3.258-4.811-.18-11.351-6.061-11.38h-27.55l13.3-46.271c2.33-7.987-8.504-12.972-13.05-6.12l-46.12 68.101c-3.284 4.802.206 11.38 6.05 11.38h27.55l-13.29 46.279c-2.37 8.015 8.505 12.961 13.04 6.12l20.351-30.05c.77-1.14.47-2.7-.67-3.47-1.101-.75-2.721-.43-3.471.67l-20.35 30.04c-1.548 2.215-4.777.574-4.1-1.93l14.21-49.471c.466-1.591-.738-3.189-2.4-3.189h-30.87c-1.857 0-2.93-2.055-1.91-3.57l46.12-68.11c1.609-2.234 4.842-.465 4.101 1.94l-14.21 49.46c-.455 1.545.705 3.19 2.399 3.19h30.87c1.814 0 2.956 2.013 1.92 3.579z"/><path d="m146.021 151.264c-1.109-.75-2.729-.43-3.47.67-.77 1.141-.47 2.7.67 3.47 1.105.755 2.668.508 3.47-.67.773-1.148.47-2.704-.67-3.47z"/></g></g></svg>